<?xml version="1.0" encoding="UTF-8"?>
<svg version="1.1" viewBox="0 0 1350 1600" width="1280" height="1280" xmlns="http://www.w3.org/2000/svg">
<path transform="translate(0)" d="m0 0h1350v1600h-1350z" fill="#FDFDFD"/>
<path transform="translate(895,64)" d="m0 0h34l17 4 11 6 28 17 20 12 28 17 32 19 21 13 32 19 28 17 32 19 28 17 54 32 15 9 11 10 3 7-1 7-6 9-10 4-18 3-23 2-43 2-8 3-2 5-3 48-2 18-1 5v11l6 11 4 8 2 13-2 11-4 8-9 10-9 6-8 4-5 6-3 8-2 15v34l3 21 6 26 11 33 6 11 6 9-1 7-7 4-14 4-20 3h-16l-13-3-10-5-11-10-8-14-4-11-3-15-1-11v-23l4-20 8-24 13-30 15-30-1-9-4-17v-13l3-9 6-8 10-6 10-4 5-16 2-12 1-11v-37l-34-24-20-14-17-12-40-28-17-12-20-14-17-12-16-11-15 2-6 2 46 32 103 72 20 14 13 9v2l-130 14-103 11h-10l-13-3-14-7-11-8-22-13-64-38-20-12-32-19-28-17-32-19-15-9-28-17-30-18-26-16-21-13-13-9-4-6 1-6 7-6 14-5 9-2 197-20z" fill="#7DC227"/>
<path transform="translate(585,384)" d="m0 0 4 5 8 12 11 13 14 14 17 13 15 10 21 12 30 15 38 16 38 14 26 8 26 6 31 5 42 4 25 1h42l41-2 33-3 9-1 1 2-9 25-9 20-12 23-10 15-10 13-11 12-54 54-8 7-56 56-8 7-58 58-8 7-46 46h-2l-8-16-7-11-8-10-12-12-10-7-10-6-15-6-12-3-7-1h-29l-41 7-8 1h-15l-10-3-10-9-8-16-9-22-6-10-6-5-19-6-8-6-4-7-1-7 3-7 2-2-1-5-10-9-5-4-2-4 1-7 7-8 10-9 12-9 5-6v-6l-4-6-15-13-7-7-2-4v-9l4-6 9-8 11-9 14-13 8-7 12-12 7-10 3-9 2-13 1-24 1-42 5-19 11-26z" fill="#714C1B"/>
<path transform="translate(460,265)" d="m0 0h43l28 4 23 6 21 8 13 7v9l-6 42-3 11-16 28-7 15-8 26-5 22-3 24-1 38-4 13-7 13-8 10-9 10-11 9-13 11-6 5-9 13-3 8v11l8 16 7 10 5 6 2 2-16 12-8 8-4 7-1 10 5 15 6 10 3 4v10l2 12 4 8 14 8 19 10 8 7 7 24 7 16 9 14 5 6 9 6 6 2h12l46-7 11-1h32l17 3 15 5 12 6 12 9 8 8 4 11-1 5-13 12-12 12-8 7-14 14-8 7-15 15-8 7-8 8-8-6-10-10-8-7-7-7-8-7-17-16-13-12-15-14-13-12-16-15-13-12-16-15-12-11-30-28-13-12-8-7-2-15-3-6-3-4v-6l4-10v-8l-9-19-13-23-6-10-28-28 10-34 4-20v-8l-3-5-7-6-5-2h-23l-10-3-8-7-14-21-3-2h-7l-16 8-26 10-19 7-4-1-6-20-4-25v-38l4-25 6-21 10-24 11-20 10-14 11-14 7-7 4-5 8-7 10-9 17-12 13-8 23-12 24-9 20-6 26-5z" fill="#EFA94B"/>
<path transform="translate(383,105)" d="m0 0h9l4 5 3 11 3 30 5 10 9 8 12 5 15 3 13 2 3 5 3 11 5 4 7 1 12-1 14 4h6l5-3 5-18 7-8 7-2 21-1 6 5 4 4 9 3 9 1 22 11h5l-5 26-10 45-9-2-30-8-31-6-28-3h-43l-25 3-23 5-27 9-29 14-21 14-14 11-12 11-16 16-9 11-12 16-12 19-12 22-6 14-6 20-4 25-1 13v23l2 24 4 24 2 7-1 5-4 4-11 4-7 1h-25l-9-2-6-4-5-5-25-17-10-9-9-13-19-32-9-10-17-12-6-9v-12l6-23 6-21 2-12v-12l-3-14-5-17v-15l5-15 10-19 10-15 10-13 8-9 17-12 13-9 4-7 2-10 1-27 3-8 7-6 11-3 8-7 8-11 4-10 3-14h4l6 9 8 3 23 2 10 1 6-4 9-12 8-7 10-4 19-3 24-2 14-5 8 1 10 3h8l14-3z" fill="#8BBF4C"/>
<path transform="translate(630,230)" d="m0 0 6 2 28 17 32 19 56 34 32 19 28 17 32 19 8 3 7 1h10l242-20 5 1v22l-3 16-3 6-13 9-10 9-9 12-4 10-1 4v21l3 19 2 9-8 6-16 8-20 6-23 4-18 2h-62l-43-4-40-6-35-7-34-9-33-11-28-12-24-12-18-11-17-12-11-9-10-9-14-14-10-14-4-10-2-13v-19l3-26 7-34 8-30z" fill="#258F81"/>
<path transform="translate(460,265)" d="m0 0h43l28 4 23 6 21 8 13 7v9l-6 42-3 11-16 28-7 15-2 6-14-1-9-4-10-2-3-1h-60l-13 2-9 5-13 1-11 5-7 3-2 2h-7l-5 2v2l-11 4-3 4-7 3-4 5-6 3-10 7-6 4-6 5-7 8-5 5-7 9-5 8-6 9-5 5-2 5-4 4-4 9-3 5-1 8-5 8-2 4 2 1-30 11-4-1-6-20-4-25v-38l4-25 6-21 10-24 11-20 10-14 11-14 7-7 4-5 8-7 10-9 17-12 13-8 23-12 24-9 20-6 26-5z" fill="#F6C15B"/>
<path transform="translate(442,788)" d="m0 0 4 2 17 16 8 7 12 11 20 18 12 11 20 18 12 11 20 18 12 11 20 18 12 11 8 7 13 12 16 14 4-2 12-12 8-7 13-13 8-7 14-14 8-7 13-13 8-6-2 5-12 17-14 20-12 17-26 36-16 21-9 12-11 14-12 14-11 11-10 4h-15l-28 3-10 3-8 5-3 1h-9l-8-3-7-8-6-15v-12l2-7-12-16-2-4-2-11-6-10-10-13-8-13-3-9-1-5-2-36-3-12-14-20-9-16-5-12-2-8v-11l3-25 5-16z" fill="#8BBF4C"/>
<path transform="translate(630,230)" d="m0 0 6 2 28 17 32 19 56 34 32 19 28 17 32 19 8 3 7 1h10l242-20 5 1v22l-3 16-3 6-5 2-4-1h-478l-8-10-4-8-3-17v-19l3-26 7-34 8-30z" fill="#56AC4E"/>
<path transform="translate(690,235)" d="m0 0h311l15 11 16 11 63 44 20 14 3 2v2l-130 14-103 11h-10l-13-3-14-7-11-8-22-13-64-38-20-12-32-19-10-6z" fill="#56AC4E"/>
<path transform="translate(458,392)" d="m0 0h60l6 2 9 2 7 3 13 1-1 7-6 22-4 21-2 17-1 20h-1l-1-8-9-5-25-5h-30l-17 3-16 4-5 3-6 2-15 8-10 7-5 3-5 5-7 6-8 10-3 1-2 6-6 8-6 11-2 6h-2l-2 4-7-1-6-4-8-9-7-12-4-5-2-1h-7l-16 8-13 5h-4l2-6 5-9 1-7 4-6 3-8 4-3 3-7 5-5 4-6 5-8 10-13 10-10 10-8 11-7 4-3 4-2 4-5 6-2 5-5 9-2v-2l5-3h7l5-4 8-3 7-3 13-1 9-5z" fill="#F2B453"/>
<path transform="translate(1114,396)" d="m0 0h3v2l3-1h48l3-1 11 22 2 13-2 11-4 8-9 10-9 6-8 4-5 6-3 8-2 15v34l3 21 6 26 11 33 6 11 6 9-1 7-7 4-14 4-20 3h-16l-13-3-10-5-11-10-8-14-4-11-3-15-1-11v-23l4-20 8-24 13-30 15-30-1-9-4-17v-13l3-9 6-8z" fill="#077D9F"/>
<path transform="translate(1035,234)" d="m0 0 8 1h167l13-1 20 12 24 14 13 9 7 8 2 5-1 7-6 9-10 4-18 3-23 2-43 2-8 3-2 5-3 48-2 18-2 13-4 2h-50l-1-3 11-5 3-1 5-16 2-12 1-11v-37l-34-24-20-14-17-12-20-14-14-10v-4z" fill="#56AC4E"/>
<path transform="translate(723,446)" d="m0 0h340l8 1 2 4 3 19 2 9-8 6-16 8-20 6-23 4-18 2h-62l-43-4-40-6-35-7-34-9-33-11-28-12-14-7 1-2z" fill="#077D9F"/>
<path transform="translate(541,818)" d="m0 0 7 1 5 5 7 5 6 2h12l46-7 11-1h32l17 3 15 5 12 6 12 9 8 8 4 11-1 5-13 12-12 12-8 7-14 14-8 7-15 15-8 7-8 8-8-6-10-10-8-7-7-7-8-7-17-16-13-12-15-14-13-12-16-15-13-12-4-4-1-5 1-1 8-1 4-3z" fill="#F6C15B"/>
<path transform="translate(627,386)" d="m0 0h474l4 1-1 3-9 7-8 7-6 8h-427l-3 3-15-14-12-12v-2z" fill="#349771"/>
<path transform="translate(947,775)" d="m0 0h3l6 25 2 12v26l-5 12-12 21-11 18-10 18-4 10-3 14-4 8-9 10-8 7-11 7-5 4-9 11-4 1-4-20-6-12-7-11-1-2v-8l8-11 9-10 10-13 6-12v-9l-3-12v-7l4-8 9-9 11-8 11-10 9-11 11-13 8-10 7-7z" fill="#248E81"/>
<path transform="translate(1114,396)" d="m0 0h3v2l3-1h48l3-1 11 22 2 13-2 11-4 8-9 10-9 6-8 4-5 6-3 8-2 15-1 33-1-3-60-1-6-1 6-17 12-27 14-28-1-9-4-17v-13l3-9 6-8z" fill="#248E82"/>
<path transform="translate(285,1310)" d="m0 0h14l10 4 6 5 1 2 2-9 1-1h12l1 1v91l-2 10-4 8-9 8-10 4-7 1h-11l-14-3-8-4 2-12 5 1 12 3h14l8-3 5-6 1-3v-15l-8 6-6 2h-16l-8-3-6-4-6-7-5-12-1-5v-25l5-16 7-10 9-6z" fill="#06A059"/>
<path transform="translate(72,1281)" d="m0 0h40l13 1 11 4 8 6 5 7 3 12v7l-3 10-6 8-6 4h-2v2l5 2 7 6 4 10 1 23 2 9 3 4-1 3h-16l-4-6-1-5-1-24-3-8-6-5-6-2-31-1v51h-16z" fill="#04A059"/>
<path transform="translate(555,1273)" d="m0 0h16v126h-12l-3-9-7 6-10 4h-16l-10-4-6-5-6-10-3-8-1-7v-18l3-14 6-12 8-8 10-4h15l9 4 6 5z" fill="#04A05A"/>
<path transform="translate(689,1273)" d="m0 0h16v126h-12l-2-5v-5l-10 8-8 3h-16l-10-4-8-8-6-12-2-11v-16l2-12 5-12 9-10 7-4 4-1h15l9 4 6 5z" fill="#04A05A"/>
<path transform="translate(1036,1310)" d="m0 0h15l9 4 7 6 3-9h12v121h-16l-1-40-6 5-8 3h-16l-10-4-8-8-6-12-2-11v-16l2-12 5-12 9-10 8-4z" fill="#03A059"/>
<path transform="translate(630,230)" d="m0 0 6 2 28 17 32 19 56 34 10 6v2l-6 1h-144v-9l6-29 8-30z" fill="#7DC227"/>
<path transform="translate(790,1281)" d="m0 0h14l7 19 34 96v3h-16l-4-10-6-18v-2l-44 1-10 28-1 1h-16l3-11 20-55 18-50z" fill="#05A059"/>
<path transform="translate(380,1310)" d="m0 0h17l10 3 9 7 5 10 1 8 1 55 1 5-1 1h-16l-2-10-1-1-5 5-7 5-6 2h-16l-10-4-6-7-3-7v-15l4-8 7-6 13-5 9-1h21l-1-13-3-6-4-3-3-1h-12l-8 4-4 8h-15l1-9 6-8 9-6z" fill="#05A05A"/>
<path transform="translate(442,740)" d="m0 0 8 4 13 3 10 1h15l8-2 19 10 8 7 7 24 7 16 9 14v3l-5-1-13 2-4 3-8 1-1 4-8-7-16-15-13-12-16-15-13-12-8-7-2-17 1-2h2z" fill="#F2B453"/>
<path transform="translate(1071,434)" d="m0 0h1v15l-1-2h-348l-21 1-20-11-1-2z" fill="#1A898C"/>
<path transform="translate(947,775)" d="m0 0h3l6 25 2 12v26l-5 12-7 12-6 1h-64l-1-4v-7l4-8 9-9 11-8 11-10 9-11 11-13 8-10 7-7z" fill="#077D9F"/>
<path transform="translate(1226,1310)" d="m0 0h16l11 4 8 7 6 12 2 13v12h-56l3 16 6 9 6 3 11 1 10-2 10-5h3l5 10-8 6-12 4h-20l-10-3-8-6-7-8-4-9-2-11v-16l3-13 6-10 8-8 10-5z" fill="#04A059"/>
<path transform="translate(200,1310)" d="m0 0h16l11 4 8 7 6 12 2 9v16h-56l3 15 5 9 8 4 10 1 11-2 9-5h3l5 8-2 4-8 5-10 3h-20l-11-4-8-6-6-8-4-9-2-12v-12l3-14 6-11 8-8 10-5z" fill="#04A059"/>
<path transform="translate(1114,396)" d="m0 0h3v2l3-1h48l3-1 11 22 2 13-2 11-4 8-3 3v-2h-68l-5-16-1-6v-13l3-9 6-8z" fill="#349771"/>
<path transform="translate(698,1449)" d="m0 0h19l1 1v88h-18l-1-5-9 6h-12l-8-4-6-7-3-8-1-6v-12l3-12 4-7 7-6 7-2 10 1 6 5z" fill="#0A7F9C"/>
<path transform="translate(1107,1311)" d="m0 0h15l1 1 1 61 3 9 4 3 3 1h12l9-4 5-6 1-64 1-1h15l1 1v86l-1 1h-14l-2-11-6 7-7 4-4 1h-15l-10-4-7-7-4-9-2-14v-54z" fill="#09A157"/>
<path transform="translate(354,1455)" d="m0 0h54v15h-35v18h29v15h-29v20h35v15h-55v-82z" fill="#097E9D"/>
<path transform="translate(499,1475)" d="m0 0h8l9 2 8 6 5 6 3 7 1 5v12l-4 13-7 8-8 4-3 1h-16l-9-4-7-6-5-10-1-5v-13l3-10 4-6 8-7 5-2z" fill="#087E9E"/>
<path transform="translate(762,1455)" d="m0 0h54v15l-34 1-1 17h29v15h-29v20h35v15h-54z" fill="#077D9F"/>
<path transform="translate(891,1271)" d="m0 0 12 1 3 1-1 10-1 2-13 1-5 3-2 5-1 17h15v13h-15v74l-1 1h-15l-1-1v-74h-13v-13h13v-14l2-10 6-9 8-5z" fill="#09A157"/>
<path transform="translate(595,1475)" d="m0 0h8l8 2 6 4 6 7 2 6 1 8v11l-1 1-34 1 3 6 4 2h12l7-2h4l4 10v2l-8 4-8 2h-17l-10-4-7-7-4-9-1-4v-14l3-11 7-9 10-5z" fill="#097E9C"/>
<path transform="translate(953,1475)" d="m0 0 13 1 8 4 6 7 3 9v17l-1 1h-34l3 6 5 3h12l10-2 4 9-1 4-10 4-4 1h-17l-10-4-5-4-6-10-1-4v-18l3-9 4-6 7-6 5-2z" fill="#097E9D"/>
<path transform="translate(665,1323)" d="m0 0h9l7 3 6 5 2 3v42l-7 8-7 3h-11l-7-3-6-7-3-8-1-7v-9l3-16 5-8 4-4z" fill="#FEFEFE"/>
<path transform="translate(531,1323)" d="m0 0h8l8 3 6 5 2 4v40l-4 6-7 5-3 1h-11l-7-3-5-5-4-10-1-7v-10l2-12 5-10 7-6z" fill="#FEFEFE"/>
<path transform="translate(1042,1323)" d="m0 0h11l8 4 5 5v45l-7 8-9 3-10-1-8-5-5-9-2-12 1-16 3-10 5-8z" fill="#FEFEFE"/>
<path transform="translate(292,1323)" d="m0 0h8l8 3 7 8v42l-7 8-7 3h-11l-8-4-4-5-3-7-1-5v-18l3-12 6-9 5-3z" fill="#FEFEFE"/>
<path transform="translate(439,1475)" d="m0 0 13 1 8 4 6 7 2 4v9h-17l-4-8-6-1-4 2-3 8v12l3 9 2 1h8l2-2 2-5h17v8l-5 8-9 6-4 1h-15l-9-4-6-5-5-10-1-3v-19l4-10 7-8 8-4z" fill="#087E9E"/>
<path transform="translate(975,1179)" d="m0 0h11l9 3 7 8 1 3 1 39 1 10h-7l-3-8-7 6-8 3h-11l-7-3-5-6-2-6 1-9 5-7 8-4 3-1h24l-1-13-3-5-8-3-11 1-6 5-2 5h-7l1-6 4-6 8-5z" fill="#0B7F9B"/>
<path transform="translate(892,1461)" d="m0 0h19l1 1v14h9v14h-9l1 32 7 1 2 4v11l-2 1h-15l-8-4-4-7-1-4v-34h-8v-14h8z" fill="#0A7E9C"/>
<path transform="translate(827,1449)" d="m0 0h19v89h-19l-1-1v-87z" fill="#0B7F9B"/>
<path transform="translate(88,1294)" d="m0 0h28l9 2 8 7 2 5v14l-3 6-6 5-7 2h-31z" fill="#FEFEFE"/>
<path transform="translate(476,1310)" d="m0 0h11l1 1-1 12-1 3h-11l-8 3-5 6-1 64h-16v-88h14l1 3v8l5-5 8-6z" fill="#039F5B"/>
<path transform="translate(945,1310)" d="m0 0h11l1 1-1 12-1 3h-11l-8 3-5 6-1 63-1 1h-15v-88h14l2 11 7-8z" fill="#039F5B"/>
<path transform="translate(552,1179)" d="m0 0h10l9 4 6 7 3 8v13l-42 1 2 12 4 7 6 4 3 1h9l9-3 5-3 2 3-1 4-7 4-6 2h-13l-9-4-7-7-4-9-1-6v-12l4-13 8-9z" fill="#0A7F9B"/>
<path transform="translate(1105,1179)" d="m0 0h10l9 4 6 7 3 8v13l-42 1 2 12 4 7 6 4 3 1h9l9-3 5-3 2 3-1 4-7 4-6 2h-13l-10-5-7-8-3-7-1-6v-11l3-12 6-8 9-6z" fill="#0A7F9C"/>
<path transform="translate(668,1179)" d="m0 0h10l9 4 6 7 3 9v12l-42 1 2 13 6 8 7 3h9l9-3 5-2 2 5-8 5-6 2h-13l-9-4-7-7-4-9-1-5v-13l3-11 6-8 5-4z" fill="#0A7F9C"/>
<path transform="translate(542,1449)" d="m0 0h19v89h-19z" fill="#077D9F"/>
<path transform="translate(296,1185)" d="m0 0 10 1 6 4 5 7 2 7v14l-4 11-7 6-5 2h-8l-7-3-6-7-3-8v-16l4-10 7-6z" fill="#FEFEFE"/>
<path transform="translate(889,1185)" d="m0 0 9 1 6 4 4 5 3 7v18l-3 8-4 5-5 3-4 1h-8l-8-4-4-5-4-11v-11l3-10 5-7 5-3z" fill="#FEFEFE"/>
<path transform="translate(942,861)" d="m0 0 3 1-2 5-13 22-3 3v-2l-7 1h-44l-4 2 6-13v-9l-1-8 2-1h61z" fill="#1B8A8B"/>
<path transform="translate(361,1179)" d="m0 0h10l8 4 4 5 2 2 7-8 8-3h9l7 3 5 4 4 11v45h-7l-1-43-2-7-4-4-6-2-8 1-5 3-4 6-1 4-1 42h-7l-1-42-3-9-5-4-8-1-9 3-4 5-1 2-1 46h-7v-62h6l1 8 8-7z" fill="#097E9D"/>
<path transform="translate(1085,499)" d="m0 0 2 1 1 2h52l1 3v27l-1-3-60-1-6-1 6-17z" fill="#1B8A8B"/>
<path transform="translate(465,1185)" d="m0 0 9 1 7 6 4 10v19l-4 10-6 5-4 1h-8l-7-3-6-7v-31l5-7 5-3z" fill="#FEFEFE"/>
<path transform="translate(973,1311)" d="m0 0h15l1 1v86l-1 1h-15l-1-1v-86z" fill="#0BA256"/>
<path transform="translate(757,1158)" d="m0 0h14l9 3 8 7 4 9v6h-7l-3-10-7-6-6-2h-10l-8 3-5 5-1 2v9l3 5 12 6 15 5 11 6 5 6 2 6v7l-3 7-4 5-10 5-4 1h-15l-11-4-8-6-3-6-1-9h7l3 10 8 6 7 2h11l8-3 5-4 2-9-3-7-10-6-20-7-10-6-4-5-2-10 2-8 7-8 8-4z" fill="#0B7F9B"/>
<path transform="translate(464,1179)" d="m0 0h10l8 4 6 7 4 10 1 16-2 11-6 10-7 5-3 1h-12l-9-4-3-3-1 29h-7v-85h5l1 1 1 7 8-7zm1 6-7 2-5 4-3 5v31l7 8 6 2h8l7-3 4-5 3-8v-19l-4-10-7-6z" fill="#0A7F9C"/>
<path transform="translate(743,298)" d="m0 0 6 2 13 8v2l-6 1h-144v-9l1-2h128z" fill="#7DC227"/>
<path transform="translate(223,1158)" d="m0 0h14l11 4 7 6 4 9v8h-7l-2-10-6-7-9-3h-10l-9 4-6 8-3 10v27l4 12 5 6 9 4h10l9-3 6-7 2-10h7v8l-5 10-8 6-9 3h-14l-10-4-8-8-5-11-1-5v-29l3-10 5-8 8-7z" fill="#0B7F9B"/>
<path transform="translate(859,1476)" d="m0 0h18l1 1v61h-20v-61z" fill="#087D9E"/>
<path transform="translate(886,1179)" d="m0 0h11l9 4 6 5 6 12 1 7v8l-2 10-4 8-8 7-8 3h-12l-9-4-7-7-4-9-1-4v-16l4-11 7-8 7-4zm3 6-7 2-5 4-5 10-1 5v11l4 11 5 6 7 3h8l7-3 5-5 3-5 1-4v-18l-5-10-6-5-6-2z" fill="#0C809A"/>
<path transform="translate(294,1179)" d="m0 0h10l10 4 7 7 4 8 1 4v18l-4 11-6 7-7 4-4 1h-12l-8-3-7-6-5-9-1-4v-19l4-11 6-7 8-4zm2 6-8 3-6 7-3 8v16l4 10 8 7 4 1h8l8-4 5-6 3-9v-14l-3-9-6-7-8-3z" fill="#0B7F9B"/>
<path transform="translate(589,1180)" d="m0 0h8l15 23h2l15-23h8l-2 5-16 24v3l8 12 11 16v2h-8l-16-24h-2l-16 24h-8l2-5 12-17 6-9-5-9-8-11-6-9z" fill="#0A7F9C"/>
<path transform="translate(825,1179)" d="m0 0h11l9 4 5 5 3 6v7h-6l-3-9-5-4-6-2-10 1-6 5-4 10v18l4 10 1 3 5 2 3 1h9l8-4 3-6 1-4h6v7l-4 7-9 6-4 1h-11l-8-3-6-5-5-10-1-3v-22l4-10 5-6 7-4z" fill="#0C809A"/>
<path transform="translate(387,1358)" d="m0 0h18v16l-7 8-9 4-11 1-7-3-3-3-1-3v-7l4-7 6-4z" fill="#FEFEFE"/>
<path transform="translate(796,1306)" d="m0 0h2l12 36 4 13h-34l1-6 14-40z" fill="#FEFEFE"/>
<path transform="translate(203,1323)" d="m0 0h11l6 3 4 5 2 5 1 9h-39l1-7 4-8 7-6z" fill="#FEFEFE"/>
<path transform="translate(1228,1323)" d="m0 0h12l7 4 5 10v8h-38l1-8 5-8 6-5z" fill="#FEFEFE"/>
<path transform="translate(976,1212)" d="m0 0h20v13l-4 6-6 4-8 2-9-1-5-4-1-2v-9l4-5z" fill="#FEFEFE"/>
<path transform="translate(963,210)" d="m0 0 2 1 2 4-8 1h-296l-7 2-2-2v-3l309-1z" fill="#56AC4E"/>
<path transform="translate(933,1153)" d="m0 0h7v89h-7z" fill="#077D9F"/>
<path transform="translate(509,1153)" d="m0 0h7v89h-7z" fill="#097E9D"/>
<path transform="translate(992,1484)" d="m0 0h12l11 16 4 6-2 5-11 15-3 4h-11l1-5 10-17-1-4-10-18z" fill="#0B7F9B"/>
<path transform="translate(308,1486)" d="m0 0h11l-1 4-10 18 2 6 9 15v3h-11l-7-9-9-13 2-5 12-17z" fill="#097E9D"/>
<path transform="translate(1011,1484)" d="m0 0h12l9 12 6 9-1 5-14 20h-11v-3l11-19-2-6-10-17z" fill="#0A7F9B"/>
<path transform="translate(327,1486)" d="m0 0h11l-2 6-9 15 1 5 10 18v2h-11l-7-9-9-13 2-5 12-17z" fill="#097E9D"/>
<path transform="translate(728,1281)" d="m0 0h15l1 1v18l-8 22h-9v-40z" fill="#0BA257"/>
<path transform="translate(1068,1179)" d="m0 0h8l1 1v6l-13 2-5 5-3 6-1 43h-7v-62h6l1 1 1 7 7-7z" fill="#097E9D"/>
<path transform="translate(502,1490)" d="m0 0 7 2 3 4 1 3v17l-4 7-2 1h-8l-5-5-1-3v-17l3-6 2-2z" fill="#FEFEFE"/>
<path transform="translate(1107,1185)" d="m0 0 9 1 6 4 3 5 1 10h-35l2-9 6-8z" fill="#FEFEFE"/>
<path transform="translate(554,1185)" d="m0 0 9 1 6 4 3 5 1 10h-35l2-9 6-8z" fill="#FEFEFE"/>
<path transform="translate(670,1185)" d="m0 0 9 1 6 4 4 10v5h-35l2-9 4-6 6-4z" fill="#FEFEFE"/>
<path transform="translate(688,1490)" d="m0 0 6 1 4 4v25l-3 3-2 1h-7l-5-5-1-3v-16l3-7z" fill="#FEFEFE"/>
<path transform="translate(1023,1180)" d="m0 0h6l1 1v61h-7l-1-1v-60z" fill="#1A888C"/>
<path transform="translate(732,1455)" d="m0 0h15v19l-5 12h-11v-30z" fill="#0C809A"/>
<path transform="translate(1181,210)" d="m0 0 2 1 3 4-2 1h-175l-3 1-5-2v-2l176-1z" fill="#56AC4F"/>
<path transform="translate(973,1273)" d="m0 0h16v16l-1 1h-15l-1-1v-15z" fill="#10A257"/>
<path transform="translate(859,1449)" d="m0 0h19v14h-19l-1-1v-12z" fill="#118394"/>
<path transform="translate(740,297)" d="m0 0 4 1v2l-3 1h-124l-4-2h122z" fill="#56AC4F"/>
<path transform="translate(956,1490)" d="m0 0 6 2 2 3v6h-16l1-7 3-3z" fill="#FEFEFE"/>
<path transform="translate(598,1490)" d="m0 0 5 1 3 3v7h-16l2-7 3-3z" fill="#FEFEFE"/>
<path transform="translate(863,964)" d="m0 0h15l-6 8-6 7h-3l-2-10 1-4z" fill="#349771"/>
<path transform="translate(1023,1153)" d="m0 0h6l1 1v9h-7l-1-1v-8z" fill="#18878E"/>
<path transform="translate(482,473)" d="m0 0h12l1 2-14 1-8 1-1-2z" fill="#F2B453"/>
<path transform="translate(457,475)" d="m0 0h9l1 2-12 3h-5l5-4z" fill="#F2B453"/>
<path transform="translate(461,740)" d="m0 0 12 1 1 2-5 1-8-3z" fill="#F2B453"/>
<path transform="translate(514,476)" d="m0 0 9 1 1 3-10-2z" fill="#F2B453"/>
</svg>
