<?xml version="1.0" encoding="utf-8"?>
<!-- Generator: Adobe Illustrator 27.5.0, SVG Export Plug-In . SVG Version: 6.00 Build 0)  -->
<svg version="1.1" xmlns="http://www.w3.org/2000/svg" xmlns:xlink="http://www.w3.org/1999/xlink" x="0px" y="0px"
	 viewBox="0 0 500 500" style="enable-background:new 0 0 500 500;" xml:space="preserve">
<g id="Background">
	<rect style="fill:#FFFFFF;" width="500" height="500"/>
</g>
<g id="Objects">
	<g>
		<g>
			<path style="fill:#0D0D0D;" d="M212.445,160.723c0.758,1.915,1.481,3.85,2.09,5.842c1.101,3.606,1.433,6.307,0.6,9.969
				c-0.719,3.16-2.052,5.793-3.194,8.828c-0.583,1.549-0.922,3.178-1.425,4.756c-1.584,4.968-4.728,9.264-7.821,13.463
				c-5.358,7.272-11.008,14.798-19.055,18.9c-0.384,0.196-0.788,0.387-1.219,0.393c-0.507,0.007-0.978-0.242-1.419-0.491
				c-3.698-2.083-7.135-4.63-10.203-7.562c-2.146-2.05-4.248-4.68-3.928-7.631c-0.703,0.805-1.186,1.801-1.383,2.852
				c-2.939-4.472-3.618-10.351-1.775-15.375c1.86-5.071,6.139-9.501,5.884-14.896c-0.181-3.822-2.641-7.104-4.996-10.119
				c-1.861-2.382-3.57-4.439-4.602-7.31c-0.981-2.73-1.521-5.6-1.696-8.493c-0.348-5.728-0.305-11.622,2.823-16.687
				c2.532-4.099,6.844-6.614,10.903-9.017c2.872-1.701,6.152-2.589,9.389-3.293c6.629-1.443,13.669-2.223,20.101-0.067
				c1.828,0.613,5.145,1.903,5.953,3.87c0.411,1,0.132,2.756,0.194,3.854c0.085,1.507,0.187,3.012,0.286,4.518
				c0.179,2.785,0.399,5.569,0.645,8.349c0.218,2.454,0.047,5.547,0.897,7.871C210.412,155.761,211.457,158.225,212.445,160.723z"/>
			<path style="fill:#C2805B;" d="M256.574,156.487c-0.48,0.432-0.992,0.924-1.063,1.566c-0.072,0.653,0.335,1.254,0.744,1.768
				c1.708,2.146,3.799,3.981,6.129,5.428c3.72-4.582,7.507-9.108,11.36-13.579c2.218-2.574,4.472-5.142,7.106-7.288
				c2.281-1.859,3.85-4.481,5.667-6.781c0.138-0.174,0.28-0.359,0.311-0.579c0.031-0.218-0.052-0.434-0.133-0.638
				c-0.563-1.413-1.132-2.838-1.986-4.096c-0.854-1.258-2.027-2.353-3.469-2.837c-0.236-0.079-0.483-0.142-0.731-0.12
				c-0.276,0.025-0.532,0.154-0.771,0.295c-0.575,0.34-1.098,0.768-1.546,1.264c-2.192,2.426-2.314,6.057-3.805,8.967
				c-0.831,1.621-2.081,2.997-3.471,4.174c-1.169,0.99-2.365,1.838-3.492,2.876c-1.196,1.102-2.411,2.183-3.634,3.256
				C261.385,152.272,258.95,154.347,256.574,156.487z"/>
			<path style="fill:#0D1721;" d="M219.979,186.34c6.487-4.857,12.115-10.749,17.71-16.612c9.57-10.029,18.271-20.661,27.49-30.983
				c0.278-0.311,0.583-0.638,0.989-0.733c0.702-0.165,1.344,0.415,1.811,0.966c2.679,3.167,3.764,6.936,5.265,10.739
				c1.999,5.062,3.825,10.193,5.474,15.379c3.43,10.877,5.596,22.274,7.822,33.428c-7.29,3.92-15.222,6.472-23.103,9.003
				c-12.161,3.905-24.392,7.598-36.623,11.451c-5.326,1.678-10.652,3.355-15.978,5.033c-3.04,0.958-10.281,3.486-11.916-0.706
				c-0.612-1.569-0.206-4.252-0.277-5.904c-0.122-2.828-0.156-5.659-0.092-8.488c0.072-3.182,0.016-6.878,1.749-9.691
				c1.548-2.514,4.343-3.883,6.88-5.185C211.641,191.745,215.952,189.355,219.979,186.34z"/>
			<path style="fill:#111F37;" d="M278.717,165.096c-1.65-5.186-3.476-10.317-5.474-15.379c-1.339-3.39-2.353-6.75-4.454-9.684
				c0.868,1.922,1.556,3.936,2.357,5.963c1.999,5.062,3.825,10.192,5.474,15.379c3.43,10.877,5.596,22.274,7.822,33.428
				c-7.29,3.92-15.222,6.472-23.103,9.003c-12.161,3.905-24.392,7.598-36.623,11.451c-5.326,1.678-10.652,3.355-15.978,5.033
				c-2.378,0.749-7.316,2.445-10.142,1.148c0.033,0.692,0.118,1.343,0.323,1.867c1.635,4.192,8.876,1.664,11.917,0.706
				c5.326-1.678,10.652-3.355,15.978-5.033c12.23-3.852,24.462-7.546,36.623-11.451c7.881-2.531,15.813-5.083,23.103-9.003
				C284.314,187.37,282.147,175.972,278.717,165.096z"/>
			<path style="fill:#C2805B;" d="M104.945,136.012c0.553,0.778,0.85,1.502,0.212,1.673c-0.223,0.06-0.46,0.02-0.688-0.022
				c-1.806-0.338-3.58-0.847-5.292-1.515c-1.582-0.617-3.055-1.42-4.656-1.969c-0.397-0.136-0.81-0.248-1.229-0.241
				c-0.326,0.006-0.648,0.083-0.953,0.197c-0.255,0.095-0.529,0.249-0.585,0.515c-0.084,0.393,0.344,0.687,0.708,0.858
				c2.143,1.012,4.29,2.026,6.523,2.819c1.148,0.408,2.368,0.788,3.209,1.67c0.149,0.156,0.289,0.337,0.322,0.551
				c0.098,0.631-0.963,0.663-1.396,0.685c-1.949,0.101-3.911-0.059-5.817-0.474c-0.574-0.125-1.15-0.274-1.737-0.267
				c-0.699,0.009-2.111,0.444-1.092,1.216c0.337,0.256,0.766,0.351,1.18,0.44c2.236,0.48,4.471,0.961,6.707,1.442
				c0.333,0.072,0.657,0.137,0.969,0.272c0.097,0.042,0.781,0.369,0.438,0.425c-1.857,0.301-3.742,0.455-5.571,0.896
				c-0.507,0.122-2.611,0.667-1.483,1.42c0.348,0.232,0.957,0.027,1.327-0.024c1.406-0.193,2.737-0.55,4.17-0.515
				c1.491,0.037,2.959,0.369,4.344,0.917c1.595,0.632,3.122,1.431,4.734,2.018c1.564,0.57,3.211,0.941,4.677,1.728
				c0.762,0.409,1.462,0.924,2.144,1.457c1.278,1,2.499,2.073,3.655,3.212c0.113,0.111,0.238,0.23,0.396,0.248
				c0.151,0.017,0.294-0.062,0.424-0.14c0.834-0.505,1.606-1.112,2.293-1.805c0.108-0.109,0.221-0.236,0.225-0.389
				c0.005-0.184-0.147-0.33-0.286-0.45c-2.629-2.271-4.783-4.667-5.552-8.169c-0.252-1.149-0.345-2.329-0.348-3.505
				c-0.003-1.207,0.089-2.416,0.322-3.6c0.313-1.589,0.877-3.128,1.072-4.736c0.049-0.401,0.023-0.902-0.338-1.083
				c-0.249-0.125-0.555-0.032-0.792,0.116c-0.793,0.492-1.119,1.463-1.388,2.356c-0.251,0.835-0.503,1.67-0.754,2.505
				c-0.311,1.032-0.977,2.156-2.256,1.879c-0.521-0.113-0.973-0.53-1.41-0.819c-1.951-1.294-3.906-2.591-5.703-4.091
				c-1.558-1.3-2.991-2.748-4.589-3.999c-0.281-0.22-0.582-0.441-0.935-0.495c-0.928-0.143-0.977,0.78-0.48,1.322
				c0.359,0.393,0.733,0.771,1.114,1.142c0.741,0.725,1.508,1.423,2.241,2.156C103.257,134.074,104.284,135.082,104.945,136.012z"/>
			<path style="fill:#0D1721;" d="M167.876,190.715c-6.487-4.857-12.115-10.749-17.71-16.612
				c-9.57-10.028-18.271-20.661-27.49-30.983c-0.278-0.311-0.583-0.638-0.989-0.733c-0.702-0.165-1.344,0.415-1.811,0.966
				c-2.679,3.167-3.764,6.936-5.265,10.739c-1.999,5.062-3.825,10.193-5.474,15.379c-3.43,10.877-5.596,22.274-7.822,33.428
				c7.29,3.92,15.222,6.473,23.103,9.003c12.161,3.905,24.392,7.598,36.623,11.451c5.326,1.678,10.652,3.355,15.978,5.033
				c3.04,0.958,10.281,3.486,11.916-0.706c0.612-1.569,0.206-4.252,0.277-5.904c0.122-2.828,0.156-5.659,0.092-8.488
				c-0.072-3.182-0.016-6.878-1.749-9.691c-1.548-2.514-4.343-3.883-6.88-5.185C176.213,196.12,171.903,193.73,167.876,190.715z"/>
			<path style="fill:#111F37;" d="M181.968,226.673c-5.326-1.677-10.652-3.355-15.978-5.033
				c-12.23-3.852-24.462-7.546-36.623-11.451c-7.881-2.531-15.813-5.083-23.103-9.003c2.226-11.154,4.393-22.552,7.822-33.428
				c1.65-5.186,3.476-10.317,5.474-15.379c1.173-2.97,2.101-5.915,3.723-8.572c-0.203-0.229-0.404-0.459-0.607-0.687
				c-0.278-0.311-0.583-0.638-0.989-0.733c-0.702-0.165-1.344,0.415-1.811,0.966c-2.679,3.167-3.764,6.936-5.265,10.739
				c-1.999,5.062-3.825,10.193-5.474,15.379c-3.43,10.877-5.596,22.274-7.822,33.428c7.29,3.92,15.222,6.472,23.103,9.003
				c12.161,3.905,24.392,7.598,36.623,11.451c5.326,1.678,10.652,3.355,15.978,5.033c2.884,0.909,9.539,3.219,11.612-0.123
				C186.186,228.062,183.526,227.164,181.968,226.673z"/>
			<path style="fill:#0D0D0D;" d="M223.843,143.83c-0.322,2.709-1.918,5.169-4.031,6.873c-2.113,1.704-4.708,2.706-7.348,3.269
				c-3.144,0.671-6.568,0.714-9.395-0.809c-1.383-0.745-2.562-1.832-3.587-3.03c-1.613-1.885-2.926-4.254-2.726-6.748
				c0.148-1.835,1.12-3.542,2.442-4.815c1.322-1.272,2.973-2.145,4.675-2.803c3.037-1.174,6.31-1.707,9.551-1.557
				C218.705,134.455,224.576,137.663,223.843,143.83z"/>
			<g>
				<path style="fill:#C2805B;" d="M212.784,371.706c-2.498,16.464,6.472,55.638,5.791,57.342c-0.681,1.703-1.817,4.428,1.703,4.315
					c3.52-0.113,8.402,11.241,8.402,11.241s10.56,0.341,10.219-0.681c-0.341-1.022-5.337-2.157-5.791-3.634
					c-0.454-1.476-6.359-13.966-6.359-13.966s0-59.385,0-59.84L212.784,371.706z"/>
				<path style="fill:#A86E51;" d="M229.673,432.581c-0.845-0.236-1.671-0.572-2.416-0.854c-2.562-0.945-5.033-2.18-7.721-2.743
					c-0.3-0.064-0.618-0.1-0.936-0.127c0.118-1.717-1.971-12.09-3.761-24.018c1.971-1.072,4.324-1.499,6.577-1.326
					c1.835,0.136,3.624,0.618,5.332,1.326c0,11.673,0,21.483,0,21.483S228.175,429.338,229.673,432.581z"/>
				<path style="fill:#111F37;" d="M218.119,436.123c-0.772-1.169-2.388-4.253,0.236-6.517c0,0,4.194,0.407,8.338,7.845
					c4.145,7.437,7.874,5.589,9.898,5.065c0,0,3.273,0.778,3.103,2.143c0,0-2.048,2.102-11.243,0.597
					c-0.683-0.112-1.267-0.561-1.529-1.202c-1.019-2.49-3.818-8.712-6.138-8.211c-0.268,0.058-0.44,0.327-0.423,0.601l0.541,8.443
					l-1.987,0.114l-0.419-7.755C218.475,436.844,218.341,436.459,218.119,436.123z"/>
				<path style="fill:#415D6E;" d="M228.07,424.962c0,0-0.237,1.855,0.571,2.91c0.035,0.053,0.07,0.105,0.114,0.15
					c0.949,1.029-4.958,0.686-7.341,0c-2.383-0.677-4.457,0.765-3.859-1.134s-1.618-2.382-0.642-2.945
					c0.976-0.572-3.341-1.609-1.635-3.754c1.706-2.136-8.176-39.965-2.497-48.484l15.525-6.47c0.097,0.132,0.044,8.088-0.053,17.987
					c-0.167,16.519-0.484,38.444-0.484,38.444S231.991,424.848,228.07,424.962z"/>
				<path style="fill:#38455F;" d="M221.415,428.021c-2.383-0.677-4.457,0.765-3.859-1.134s-1.618-2.382-0.642-2.945
					c0.976-0.572-3.341-1.609-1.635-3.754c1.706-2.136-8.176-39.965-2.497-48.484l15.525-6.47c0.097,0.132,0.044,8.088-0.053,17.987
					c-0.088,0.053-0.176,0.097-0.264,0.141c-2.101,0.993-4.51,0.826-6.673,1.626c-2.664,0.993-4.334,3.367-5.037,6.057
					c-0.598,2.303-0.554,4.712-0.51,7.095c0.123,5.785,0.237,11.578,0.352,17.372c0.026,1.011,0.053,2.057,0.448,2.989
					c0.747,1.767,2.611,2.743,4.343,3.578c-0.607,0.624-1.459,1.011-2.321,1.037c1.046,1.855,3.103,3.103,5.231,3.165
					c-0.835,0.457-1.679,0.914-2.523,1.371c2.453,0.07,4.897,0.15,7.341,0.22c0.035,0.053,0.07,0.105,0.114,0.15
					C229.705,429.05,223.798,428.707,221.415,428.021z"/>
			</g>
			<g>
				<path style="fill:#C2805B;" d="M157.349,314.137c-16.633-0.821-54.699,12.065-56.462,11.559c-1.763-0.506-4.589-1.36-4.12,2.131
					c0.469,3.49-10.334,9.496-10.334,9.496s0.729,10.54,1.711,10.098c0.982-0.442,1.607-5.528,3.029-6.129
					c1.423-0.601,13.252-7.738,13.252-7.738s59.081-6.004,59.533-6.05L157.349,314.137z"/>
				<path style="fill:#A86E51;" d="M98.493,337.095c0.15-0.864,0.4-1.721,0.605-2.49c0.681-2.644,1.66-5.227,1.949-7.959
					c0.033-0.305,0.037-0.625,0.032-0.944c1.72-0.056,11.829-3.184,23.514-6.17c1.266,1.853,1.928,4.15,1.984,6.409
					c0.05,1.839-0.248,3.668-0.78,5.439c-11.613,1.18-21.373,2.172-21.373,2.172S101.568,335.276,98.493,337.095z"/>
				<path style="fill:#111F37;" d="M93.801,325.958c1.085-0.887,3.99-2.805,6.508-0.424c0,0,0.019,4.214-6.961,9.089
					c-6.98,4.875-4.764,8.399-4.038,10.36c0,0-0.443,3.335-1.818,3.304c0,0-2.299-1.825-1.731-11.125
					c0.042-0.691,0.43-1.317,1.041-1.643c2.374-1.266,8.281-4.679,7.548-6.937c-0.085-0.261-0.37-0.405-0.641-0.36l-8.345,1.392
					l-0.314-1.966l7.673-1.201C93.12,326.385,93.489,326.213,93.801,325.958z"/>
				<path style="fill:#415D6E;" d="M105.911,334.73c0,0-1.869-0.049-2.837,0.863c-0.049,0.04-0.098,0.081-0.137,0.129
					c-0.927,1.049-1.184-4.864-0.742-7.303c0.433-2.439-1.212-4.357,0.738-3.954c1.95,0.403,2.207-1.85,2.865-0.936
					c0.667,0.913,1.263-3.486,3.569-2.006c2.298,1.481,38.934-12.175,47.983-7.386l8.007,14.792
					c-0.121,0.109-8.042,0.862-17.9,1.766c-16.451,1.504-38.296,3.406-38.296,3.406S106.421,338.619,105.911,334.73z"/>
				<path style="fill:#38455F;" d="M102.194,328.418c0.433-2.439-1.212-4.357,0.738-3.954c1.95,0.403,2.207-1.85,2.865-0.936
					c0.667,0.913,1.263-3.486,3.569-2.006c2.298,1.481,38.934-12.175,47.983-7.386l8.007,14.792
					c-0.121,0.109-8.042,0.862-17.9,1.766c-0.061-0.082-0.114-0.165-0.167-0.248c-1.201-1.99-1.278-4.403-2.293-6.474
					c-1.258-2.55-3.788-3.971-6.535-4.399c-2.352-0.362-4.744-0.075-7.11,0.21c-5.743,0.707-11.495,1.407-17.247,2.106
					c-1.003,0.129-2.041,0.26-2.928,0.748c-1.682,0.922-2.465,2.875-3.121,4.682c-0.682-0.54-1.153-1.35-1.267-2.204
					c-1.74,1.228-2.774,3.401-2.62,5.524c-0.539-0.785-1.079-1.578-1.619-2.371c0.178,2.447,0.346,4.887,0.523,7.325
					c-0.049,0.04-0.098,0.081-0.137,0.129C102.009,336.77,101.753,330.858,102.194,328.418z"/>
			</g>
			<g>
				<g>
					<path style="fill:#FFD1A0;" d="M278.395,134.497c2.328,5.76,4.655,11.623,8.443,16.548c0.397,0.516,0.825,1.034,1.402,1.336
						c0.728,0.382,1.597,0.369,2.413,0.266c2.851-0.359,5.564-1.733,7.539-3.819c0.555-0.586,1.074-1.279,1.129-2.084
						c0.066-0.968-0.546-1.835-1.129-2.611c-4.251-5.66-8.48-11.385-11.701-17.688c-1.966-3.849-3.541-7.884-5.063-11.929
						c-2.877-7.645-5.58-15.361-7.804-23.221c-0.246-0.868-0.573-1.844-1.398-2.21c-0.478-0.212-1.028-0.167-1.544-0.083
						c-3.658,0.598-7.034,2.934-9.633,5.491c-1.95,1.918-1.982,3.687-0.452,5.899c4.723,6.829,8.886,13.679,12.345,21.253
						C274.876,125.879,276.651,130.183,278.395,134.497z"/>
					<path style="fill:#F4BB87;" d="M280.274,111.83c0.584,0.666,0.832,1.818,1.158,2.689c1.423,3.786,2.891,7.556,4.687,11.174
						c-0.841,1.047-1.464,2.272-1.867,3.552c-0.772,2.486-0.744,5.165-0.345,7.743c0.894,5.794,3.648,11.3,7.753,15.487
						c-0.33,0.077-0.669,0.137-1.01,0.176c-0.812,0.101-1.678,0.113-2.413-0.264c-0.572-0.308-1.003-0.823-1.399-1.337
						c-3.789-4.929-6.115-10.791-8.447-16.551c-1.74-4.314-3.517-8.617-5.45-12.848c-3.458-7.58-7.616-14.431-12.346-21.259
						c-1.201-1.743-1.442-3.211-0.52-4.693c0.181,0.521,0.291,1.129,0.457,1.516c1.058,2.535,2.208,5.038,3.752,7.316
						c1.166,1.728,2.604,3.228,4.152,4.607c1.516,1.35,3.684,2.215,5.544,3.019c1.726,0.745,3.011-0.399,4.608-0.793
						C279.369,111.169,279.893,111.396,280.274,111.83z"/>
					<path style="fill:#721237;" d="M280.526,112.09c0.296,0.806,0.597,1.619,0.906,2.428c0.99,2.643,2.01,5.279,3.14,7.86
						c-2.087,1.198-4.293,2.18-6.586,2.85c-1.035,0.301-2.082,0.543-3.15,0.698c-0.616-1.431-1.245-2.865-1.894-4.277
						c-0.932-2.048-1.923-4.049-2.959-6.013c0.663,0.055,1.327,0.021,1.987-0.077c1.69-0.241,3.283-0.899,4.839-1.602
						C278.068,113.389,279.327,112.799,280.526,112.09z"/>
					<path style="fill:#CA2337;" d="M279.95,110.192c-0.687,0.553-1.281,1.221-1.753,1.966c-0.405,0.641-0.541,1.968-1.381,1.451
						c-0.42-0.258-0.977-0.277-1.414-0.048c-0.471,0.247-0.519,1.001-0.86,1.171c-0.354,0.176-0.927-0.31-1.213-0.46
						c-0.97-0.509-1.951-1.023-3.011-1.299c-1.06-0.276-2.223-0.298-3.218,0.159c-0.437,0.201-0.843,0.501-1.086,0.917
						c-0.497,0.854-0.198,1.934,0.153,2.857c0.686,1.807,1.526,3.556,2.509,5.221c0.859,1.455,2.163,3.023,4.07,2.671
						c1.757-0.324,2.466-2.351,3.446-3.596c0.046-0.059,0.095-0.12,0.164-0.149c0.146-0.062,0.304,0.038,0.443,0.113
						c0.449,0.243,1.021,0.244,1.47,0.002c0.45-0.242,0.764-0.72,0.808-1.229c-0.02,0.23,2.659,1.083,3.046,1.183
						c1.262,0.327,2.433,0.34,3.642-0.213c0.13-0.06,0.262-0.126,0.355-0.234c0.167-0.192,0.181-0.469,0.18-0.723
						c-0.009-2.08-0.393-4.104-0.715-6.172c-0.232-1.49-0.525-3.098-1.632-4.122c-0.422-0.391-0.971-0.676-1.546-0.665
						c-0.435,0.009-0.85,0.185-1.234,0.389C280.741,109.612,280.331,109.884,279.95,110.192z"/>
					<path style="fill:#9F1D37;" d="M281.285,114.33c-0.198,0.24-0.408,0.499-0.646,0.708
						C280.84,114.785,281.064,114.551,281.285,114.33z"/>
					<path style="fill:#9F1D37;" d="M286,116.46c0.174,1.155,0.298,2.318,0.295,3.491c0.007,0.25-0.01,0.536-0.174,0.723
						c-0.089,0.109-0.224,0.179-0.356,0.236c-1.207,0.548-2.385,0.537-3.642,0.209c-0.39-0.097-3.069-0.952-3.048-1.175
						c-0.042,0.5-0.362,0.98-0.802,1.222c-0.453,0.239-1.027,0.241-1.47-0.001c-0.146-0.078-0.302-0.172-0.442-0.11
						c-0.07,0.031-0.125,0.086-0.167,0.145c-0.982,1.253-1.693,3.271-3.452,3.598c-1.563,0.286-2.733-0.724-3.576-1.908
						c0.868,0.507,2.04,0.399,2.857-0.246c0.786-0.605,1.143-1.758,0.725-2.656c-0.382-0.82-1.445-1.265-2.27-0.946
						c0.581-0.283,1.204-0.48,1.779-0.792c0.64-0.351,1.244-0.891,1.414-1.601c0.178-0.715-0.238-1.592-0.961-1.71
						c0.281-0.158,0.542-0.348,0.771-0.574c0.304,0.193,0.762,0.515,1.061,0.368c0.033-0.02,0.057-0.034,0.08-0.07
						c0.385,1.083,0.824,2.146,1.301,3.197c0.281,0.616,0.821,1.33,1.462,1.111c0.471-0.172,0.612-0.765,0.646-1.261
						c0.089-1.379-0.134-2.781-0.637-4.06c0.049-0.029,0.093-0.067,0.127-0.12c0.359,0.635,0.42,1.527,1.034,1.943
						c0.449,0.305,1.072,0.24,1.545-0.022c0.2-0.109,0.372-0.245,0.529-0.406c-0.325,0.416-0.57,0.873-0.636,1.388
						c-0.154,1.363,1.252,2.563,2.637,2.516c1.373-0.051,2.57-1.057,3.255-2.253C285.932,116.622,285.973,116.543,286,116.46z"/>
					<path style="fill:#E13535;" d="M267.342,114.101c-0.148,0.021-0.304,0.051-0.413,0.153c-0.162,0.151-0.166,0.403-0.141,0.623
						c0.148,1.271,0.949,2.448,2.077,3.052c0.329,0.176,0.7,0.308,1.069,0.258c0.37-0.049,0.728-0.323,0.775-0.693
						c0.041-0.323-0.115-0.688-0.123-1.004c1.261-0.048,2.42-0.844,0.896-1.63C270.262,114.229,268.701,113.911,267.342,114.101z"/>
					<path style="fill:#E13535;" d="M279.208,112.673c-0.169,0.347-0.302,0.761-0.137,1.111c0.257,0.545,1.068,0.556,1.583,0.243
						c0.516-0.313,0.871-0.835,1.36-1.187c-0.129,1.218,0.2,2.479,0.908,3.478c0.076,0.107,0.16,0.215,0.275,0.279
						c0.378,0.211,0.832-0.149,1.031-0.534c0.299-0.58,0.348-1.258,0.313-1.909c-0.045-0.839-0.227-1.684-0.643-2.415
						c-0.469-0.823-1.655-1.987-2.703-1.529C280.414,110.551,279.564,111.94,279.208,112.673z"/>
					<path style="fill:#FFDEB6;" d="M273.629,91.294c0.72,2.562,1.499,5.11,2.319,7.634c-0.076,0.057-0.164,0.076-0.261,0.08
						c-0.153,0.003-0.294-0.066-0.422-0.133c-2.629-1.416-3.381-5.428-6.274-6.143c-1.646-0.404-3.312,0.464-4.743,1.356
						c-0.758,0.466-1.744,0.959-2.48,0.451c-0.148-0.099-0.265-0.239-0.358-0.393c2.55-2.415,5.779-4.564,9.277-5.14
						c0.512-0.086,1.061-0.129,1.54,0.081C273.053,89.452,273.375,90.429,273.629,91.294z"/>
					<path style="fill:#FFDEB6;" d="M299.324,146.744c-0.056,0.808-0.581,1.498-1.135,2.085c-1.39,1.476-3.152,2.589-5.069,3.243
						c0.01-0.37,0.053-0.739,0.133-1.085c0.274-1.181,0.852-2.279,1.147-3.462c0.569-2.253,0.062-4.645-0.81-6.795
						c-0.626-1.558-1.44-3.024-2.193-4.517c-0.532-1.051-1.297-2.271-1.411-3.473c-0.01-0.071-0.007-0.14-0.003-0.208
						c2.536,4.002,5.359,7.82,8.205,11.603C298.775,144.909,299.386,145.779,299.324,146.744z"/>
				</g>
				<path style="fill:#A86E51;" d="M278.809,132.598c0.051,0.654,0.415,1.742,0.106,2.363c-0.343,0.69-1.069,0.44-1.466-0.08
					c-0.685-0.897-1.16-1.743-0.988-2.86c0.192-1.246,0.493-2.599,1.107-3.712c0.09-0.163,0.198-0.33,0.367-0.409
					c0.28-0.131,0.628,0.043,0.79,0.306c0.162,0.263,0.183,0.587,0.185,0.896C278.917,130.269,278.718,131.436,278.809,132.598z"/>
				<path style="fill:#C2805B;" d="M287.146,130.178c0.024,0.06,0.047,0.111,0.069,0.154c0.177,0.342,0.5,0.705,0.875,0.616
					c0.282-0.066,0.445-0.365,0.512-0.648c0.233-0.97,0.315-2.403-0.71-2.95C286.259,126.478,286.777,129.258,287.146,130.178z"/>
				<path style="fill:#C2805B;" d="M288.815,132.18c0.02,0.049,0.039,0.092,0.057,0.127c0.146,0.282,0.413,0.581,0.722,0.508
					c0.233-0.055,0.367-0.301,0.423-0.534c0.192-0.8,0.26-1.982-0.585-2.434C288.083,129.127,288.511,131.421,288.815,132.18z"/>
				<path style="fill:#C2805B;" d="M290.487,134.193c0.016,0.041,0.032,0.076,0.047,0.105c0.122,0.234,0.343,0.483,0.6,0.422
					c0.193-0.046,0.305-0.25,0.351-0.444c0.16-0.665,0.216-1.646-0.486-2.021C289.879,131.658,290.234,133.563,290.487,134.193z"/>
			</g>
			<path style="fill:#111F37;" d="M184.049,219.457c1.346,6.628,3.581,13.454,3.4,20.287c-0.159,6.028-2.508,12.53-3.675,18.534
				c-2.944,15.15-6.783,30.127-11.492,44.825c-0.377,1.178-0.804,2.421-1.759,3.207c-0.87,0.715-2.033,0.932-3.143,1.125
				c-4.967,0.863-9.935,1.727-14.902,2.59c-6.192,1.077-6.193,1.327-5.665,7.594c0.769,9.131,3.495,18.088,7.998,26.072
				c5.984,10.608,14.541,20.254,25.025,26.941c19.488,12.429,47.259,19.083,66.496,2.215c3.299-2.893,17.036-15.47,14.991-20.468
				c-8.888-21.719-18.224-43.237-27.999-64.534c-4.963-10.813-10.035-21.57-15.226-32.264c-3.726-7.676-7.488-18.881-4.052-27.397
				c0.753-1.866,1.926-3.505,3.002-5.188c1.375-2.149,2.608-4.397,3.687-6.724c0.667-1.439,1.29-3.051,0.9-4.598
				c-0.3-1.189-1.15-2.127-1.97-3.009c-4.236-4.56-8.279-9.705-13.259-13.406c-1.657-1.231-3.611-1.703-5.593-1.861
				c-3.549-0.28-7.362-0.421-10.574,1.115c-2.354,1.126-4.667,2.354-6.932,3.681c-0.363,0.213-0.735,0.438-0.98,0.81
				c-2.647,4.033,0.55,14.138,1.322,18.383C183.776,218.084,183.91,218.773,184.049,219.457z"/>
			<path style="fill:#0D1721;" d="M217.807,381.211c-11.584-0.001-24.448-4.314-36.224-12.145
				c-9.463-6.292-17.623-15.457-23.599-26.503c-4.19-7.746-6.787-16.574-7.51-25.531c-0.179-2.219-0.334-4.135-0.014-4.598
				c0.329-0.475,2.499-0.868,4.083-1.155l14.39-2.608c1.104-0.201,2.616-0.475,3.822-1.51c1.347-1.157,1.862-2.833,2.238-4.056
				c4.551-14.811,8.301-30.064,11.147-45.336c0.371-1.993,0.864-4.019,1.386-6.164c1.026-4.214,2.086-8.572,2.193-12.788
				c0.135-5.331-1.054-10.586-2.204-15.667c-0.385-1.701-0.783-3.46-1.113-5.158c-0.131-0.676-0.259-1.359-0.379-2.048
				c-0.152-0.873-0.387-1.931-0.658-3.157c-0.946-4.274-2.531-11.427-0.87-14.064c0.046-0.053,0.275-0.193,0.385-0.26
				c2.139-1.307,4.349-2.53,6.568-3.637c1.543-0.769,3.407-1.128,5.867-1.128c1.215,0,2.439,0.087,3.477,0.172
				c1.946,0.162,3.384,0.648,4.522,1.53c3.498,2.71,6.589,6.328,9.577,9.826c0.998,1.167,1.99,2.33,2.994,3.456
				c0.614,0.689,1.309,1.469,1.5,2.258c0.24,0.988-0.225,2.243-0.763,3.451c-1.007,2.264-2.168,4.472-3.45,6.561
				c-0.184,0.301-0.372,0.6-0.559,0.899c-0.898,1.433-1.826,2.916-2.484,4.617c-3.583,9.26,0.176,20.893,3.96,29.022
				c4.905,10.536,9.846,21.455,14.687,32.452c9.392,21.337,18.479,43.176,27.008,64.911c0.937,2.388-5.224,10.561-14.024,18.607
				c-7.079,6.472-15.81,9.753-25.95,9.753C217.809,381.211,217.808,381.211,217.807,381.211z"/>
			<path style="fill:#E3C2C0;" d="M212.983,212.046c-3.903,0.257-7.866,0.111-11.649-0.924c-3.792-1.036-7.421-3.004-10.134-6.026
				c-1.849-2.063-3.989-5.529-4.314-8.705c1.113-0.625,2.226-1.224,3.355-1.798c3.21-1.635,7.019-1.481,10.571-1.181
				c1.986,0.163,3.937,0.668,5.598,1.977c0.18,0.146,0.368,0.291,0.548,0.445C210.595,200.303,212.786,206.115,212.983,212.046z"/>
			<path style="fill:#FFE7E6;" d="M194.692,192.813c-0.074,0.049-0.706,0.307-1.503,0.623c-1.893,0.751-2.616,3.061-1.475,4.747
				c3.938,5.818,11.92,15.977,11.779,2.49c0,0,8.907,3.325,6.974-0.369c-1.933-3.694-10.274-7.669-10.274-7.669L194.692,192.813z"/>
			<path style="fill:#C2805B;" d="M202.493,177.751c-0.014,2.396-0.15,4.786-0.341,7.161c-0.027,0.41-0.054,0.819-0.089,1.236
				c-0.014,0.218-0.027,0.464-0.055,0.689c0,0.014,0,0.014,0,0.027c-0.13,1.645-0.252,3.298-0.355,4.943
				c-0.021,0.273-0.041,0.553-0.048,0.826c-0.055,0.857-0.203,1.749,0.261,2.52c0.377,0.626,1.043,1.048,1.534,1.575
				c0.674,0.725,1.059,1.712,1.054,2.702c-0.001,0.213-0.021,0.433-0.117,0.624c-0.16,0.321-0.505,0.506-0.845,0.618
				c-1.159,0.38-2.429,0.123-3.586-0.264c-2.139-0.714-4.129-1.87-5.818-3.364c-0.782-0.691-1.735-1.38-1.747-2.452
				c-0.008-0.689,0-1.378,0-2.068c-0.007-0.58-0.014-1.161-0.02-1.741c-0.007-0.792-0.014-1.577-0.014-2.362
				c0-0.84,0-1.673,0.02-2.499c-0.02-0.191-0.02-0.382,0-0.574v-0.478c0.014-2.014,0.027-4.035,0.068-6.049
				c0.014-0.307,0.034-0.642,0.205-0.922c0.573-0.894,5.031-0.239,6.076-0.218C199.953,177.71,201.216,177.724,202.493,177.751z"/>
			<path style="fill:#A86E51;" d="M202.493,177.751c-0.014,2.396-0.15,4.786-0.341,7.161c-0.027,0.41-0.054,0.819-0.089,1.236
				c-0.014,0.218-0.027,0.464-0.055,0.689c0,0.014,0,0.014,0,0.027c-0.13,1.645-0.252,3.298-0.355,4.943
				c-0.021,0.273-0.041,0.553-0.048,0.826c-1.003-0.062-1.986-0.157-2.963-0.287c-2.055-0.266-4.089-0.703-6.172-1.502
				c-0.048-0.021-0.102-0.041-0.15-0.062c-0.007-0.792-0.014-1.577-0.014-2.362c0-0.84,0-1.673,0.02-2.499
				c-0.02-0.191-0.02-0.382,0-0.574v-0.478c0.014-2.014,0.027-4.035,0.068-6.049c0.014-0.307,0.034-0.642,0.205-0.922
				c0.573-0.894,5.031-0.239,6.076-0.218C199.953,177.71,201.216,177.724,202.493,177.751z"/>
			<path style="fill:#C2805B;" d="M218.094,176.672c-0.85,2.669-2.148,5.167-3.65,7.518c-1.366,2.137-2.674,4.343-5.146,5.318
				c-0.245,0.099-0.506,0.177-0.792,0.25c-1.543,0.402-3.165,0.334-4.755,0.261c-1.767-0.068-3.441-0.177-5.104-0.401
				c-2.059-0.266-4.098-0.704-6.173-1.501c-1.053-0.407-2.091-0.886-3.097-1.434c-0.381-0.203-0.766-0.422-1.121-0.652
				c-0.803-0.459-1.548-0.965-2.268-1.522c-3.201-2.414-5.798-5.589-7.117-9.348c-0.235-0.662-0.428-1.35-0.579-2.049
				c-1.032-0.235-1.992-0.787-2.8-1.491c-2.774-2.372-4.025-6.366-3.144-9.88c0.313-1.178,0.902-2.372,1.992-2.904
				c0.568-0.266,1.178-0.313,1.809-0.235c-0.214-1.58-0.417-3.139-0.615-4.729c-0.349-3.034-1.371-6.96-0.005-9.88
				c0.109-0.156,0.172-0.308,0.261-0.454c1.147-2.018,3.311-2.721,5.427-3.285c2.503-0.688,4.896-1.747,7.45-2.377
				c5.683-1.366,11.538-2.127,17.403-2.117c3.326,0.031,6.22,1.152,8.801,3.243c2.028,1.637,3.045,4.124,3.384,6.762
				c0.182,1.376,0.182,2.794,0.047,4.155c-0.323,3.295-1.397,6.527-1.376,9.822c0.021,2.747,1.507,5.036,1.955,7.685
				C219.408,170.51,219.038,173.706,218.094,176.672z"/>
			<path style="fill:#A86E51;" d="M218.256,145.766c-0.615-0.188-1.23-0.365-1.861-0.495c-5.912-1.21-11.788,1.689-17.705,2.873
				c-4.823,0.964-9.875,0.777-14.614-0.542c0.438,5.469,0.709,11.022-0.339,16.407c-0.719,3.691-2.096,7.309-4.301,10.375
				c-0.177,0.25-0.365,0.511-0.563,0.777c-0.235-0.662-0.428-1.35-0.579-2.049c-1.032-0.235-1.992-0.787-2.8-1.491
				c-2.774-2.372-4.025-6.366-3.144-9.88c0.313-1.178,0.902-2.372,1.992-2.904c0.568-0.266,1.178-0.313,1.809-0.235
				c-0.214-1.58-0.417-3.139-0.615-4.729c-0.349-3.034-1.371-6.96-0.005-9.88c0.109-0.156,0.172-0.308,0.261-0.454
				c1.147-2.018,3.311-2.721,5.427-3.285c2.503-0.688,4.896-1.747,7.45-2.377c5.683-1.366,11.538-2.127,17.403-2.117
				c3.326,0.031,6.22,1.152,8.801,3.243C216.9,140.641,217.917,143.128,218.256,145.766z"/>
			<path style="fill:#0D0D0D;" d="M213.816,140.889c-2.405,0.098-4.818,0.575-7.146,1.21c-4.002,1.092-7.874,2.644-11.915,3.576
				c-2.508,0.578-5.159,0.909-7.637,0.213c-2.291-0.644-4.319-2.179-5.562-4.209c1.869,8.344,2.737,17.22,0.032,25.331
				c-0.73,2.189-1.675,4.211-3.413,5.733c-0.655,0.574-1.548,0.791-2.414,0.88c-0.813,0.083-1.652,0.067-2.421-0.207
				c-1.31-0.467-1.41-1.168-1.741-2.308c-0.414-1.426-1.385-2.791-2.003-4.144c-0.877-1.917-1.596-3.959-1.783-6.071
				c-0.18-2.04,0.123-3.941-0.086-5.997c-0.336-3.3-0.134-6.701,0.861-9.878c2.903-9.271,11.344-14.775,19.933-18.335
				c5.506-2.282,11.44-3.854,17.434-3.805c4.621,0.038,12.059,0.945,14.963,5.078c1.735,2.469,3.119,5.129,3.444,8.169
				c0.144,1.344-0.143,2.613-0.111,3.954c0.021,0.9,0.008,1.787-0.115,2.68c-0.086,0.618-0.64,1.784-0.535,2.355
				c-0.381-2.076-2.587-3.277-4.64-3.767C217.271,140.944,215.546,140.818,213.816,140.889z"/>
			<path style="fill:#FFFFFF;" d="M209.435,181.208c0.137,0.75,0.487,1.53,0.211,2.241c-0.271,0.697-1.087,1.058-1.835,1.025
				c-0.747-0.033-1.442-0.376-2.104-0.725c-0.612-0.323-1.218-0.658-1.818-1.004c-1.591-0.919-3.217-2.009-3.976-3.682
				c1.857,0.728,3.966,0.793,5.865,0.183c0.818-0.263,2.725-1.487,3.57-1.121c0.604,0.262,0.316,0.77,0.188,1.242
				C209.374,179.97,209.322,180.589,209.435,181.208z"/>
			<path style="fill:#9C2F2D;" d="M202.972,181.447c0.825,0.63,1.677,1.274,2.678,1.549c1.001,0.275,2.199,0.098,2.859-0.704
				c0.768-0.932,0.569-2.312,0.978-3.449c0.04,1.129,0.525,2.188,0.801,3.284c0.276,1.096,0.302,2.376-0.44,3.227
				c-0.903,1.036-2.555,0.992-3.833,0.486c-1.448-0.574-2.679-1.613-3.658-2.826c-1.007-1.247-1.941-2.455-2.485-3.962
				C200.988,179.446,202.025,180.724,202.972,181.447z"/>
			<path style="fill:#842422;" d="M209.476,179.667c0,0-0.002,0.014-0.017,0.012c-0.428,0.19-0.905,0.313-1.379,0.408
				c-2.925,0.642-6.211,0.402-8.663-1.289c1.495,0.321,3.107,0.555,4.673-0.121c1.992-0.852,3.898-3.154,6.082-2.881
				c0.319,0.046,0.628,0.165,0.785,0.411C211.513,177.073,210.218,178.945,209.476,179.667z"/>
			<path style="fill:#1C1C1C;" d="M195.385,153.512c-3.027-2.584-9.583,0.735-10.889,3.956c-0.236,0.582,0.525,1.023,0.995,0.765
				c1.578-0.864,2.683-2.369,4.347-3.187c1.75-0.86,3.564-0.911,5.453-1.178C195.447,153.847,195.499,153.609,195.385,153.512z"/>
			<path style="fill:#1C1C1C;" d="M217.451,155.539c-1.279-2.875-5.933-4.74-7.514-1.577c-0.059,0.119,0.006,0.34,0.109,0.329
				c1.246-0.136,2.414-0.468,3.653,0.005c1.177,0.449,2.092,1.689,3.221,2.201C217.256,156.649,217.682,156.058,217.451,155.539z"/>
			<path style="fill:#241729;" d="M192.971,163.617c-1.192,0.013-2.561,0.577-3.499,1.47c-0.295-0.03-0.59-0.064-0.881-0.14
				c-0.765-0.201-1.521-0.556-2.175-0.998c-0.148-0.1-0.352,0.1-0.249,0.249c0.54,0.778,1.517,1.537,2.553,1.851
				c-0.38,0.693-0.508,1.49-0.215,2.339c0.177,0.514,0.805,0.719,1.216,0.321c1.141-1.105,1.737-2.609,3.537-2.733
				c2.039-0.14,3.609,1.627,4.677,3.162c0.182,0.262,0.612,0.109,0.529-0.223C197.792,166.227,196.049,163.584,192.971,163.617z"/>
			<path style="fill:#241729;" d="M213.226,160.091c0.878,0.013,1.885,0.577,2.576,1.47c0.217-0.03,0.435-0.064,0.649-0.14
				c0.563-0.201,1.12-0.556,1.601-0.998c0.109-0.1,0.259,0.1,0.183,0.249c-0.398,0.778-1.117,1.537-1.879,1.851
				c0.28,0.693,0.374,1.49,0.159,2.339c-0.131,0.514-0.593,0.719-0.895,0.321c-0.84-1.105-1.279-2.609-2.604-2.733
				c-1.501-0.14-2.658,1.627-3.443,3.162c-0.134,0.262-0.451,0.109-0.389-0.223C209.677,162.701,210.96,160.057,213.226,160.091z"/>
			<path style="fill:#A86E51;" d="M210.436,169.506c-0.233-0.704-0.78-1.229-1.375-1.642c-0.869-0.603-1.92-0.76-2.683-1.563
				c-1.546-1.627-0.972-3.95,0.328-5.531c0.133-0.162-0.033-0.422-0.235-0.305c-2.229,1.299-3.05,3.898-2.425,6.362
				c0.127,0.502,0.335,0.983,0.424,1.492c0.084,0.48,0.059,0.978-0.071,1.448c-0.203,0.732-0.646,1.557-0.212,2.181
				c0.395,0.568,1.235,0.523,1.918,0.417c0.831-0.129,1.662-0.258,2.494-0.387C209.889,171.78,210.898,170.906,210.436,169.506z"/>
			<path style="fill:#2C2C2C;" d="M185.627,135.676c0.643,1.804,2.09,3.229,3.72,4.234c0.777,0.479,1.611,0.879,2.498,1.095
				c1.176,0.286,2.409,0.24,3.608,0.079c2.98-0.402,5.819-1.498,8.579-2.691c2.299-0.994,4.198-2.352,6.794-2.257
				c1.358,0.049,2.712,0.279,4.068,0.198c-0.829-0.554-1.551-1.269-2.114-2.093c2.129-0.122,4.257-0.244,6.386-0.366
				c-3.668-4.299-9.185-6.964-14.833-7.165c0.665-0.31,1.391-0.49,2.124-0.527c-3.21-0.271-6.46-0.327-9.636,0.209
				c-3.526,0.595-6.935,1.903-9.521,4.395C185.845,132.188,184.903,133.644,185.627,135.676z"/>
			<path style="fill:none;" d="M174.053,145.591c1.798,4.769,2.154,10.071,1.01,15.038c-0.74,3.212-2.234,6.448-4.993,8.253
				c-1.194,0.781-2.56,1.252-3.839,1.884c-1.279,0.632-2.528,1.484-3.184,2.751c-0.536,1.035-0.622,2.249-0.53,3.411
				c0.055,0.694,0.243,1.489,0.871,1.788"/>
		</g>
		<g>
			<path style="fill:#0D1721;" d="M302.735,188c-0.368,5.435-1.318,10.802-2.277,16.16c-1.113,6.231-2.268,12.497-4.571,18.394
				c-2.123,5.452-5.187,10.477-8.243,15.467c-4.211,6.899-8.422,13.798-13.019,20.44c-2.114,3.056-4.613,6.266-8.217,7.164
				c-0.916,0.231-1.9,0.291-2.807,0.051c-0.18-0.043-0.359-0.103-0.531-0.171c-2.482-1.018-3.278-4.083-3.741-6.728
				c-1.113-6.36-2.183-12.762-2.114-19.216c0.077-6.454,1.344-13.019,4.622-18.574c1.746-2.97,4.031-5.589,6.257-8.217
				c3.997-4.716,7.875-9.535,11.632-14.44c1.421-1.849,2.696-3.826,3.989-5.795c2.183-3.321,4.417-6.608,7.447-9.219
				c1.9-1.635,5.418-4.117,8.14-3.646C302.975,180.314,302.924,185.184,302.735,188z"/>
			<path style="fill:#111F37;" d="M277.451,207.755c5.452,7.549,5.512,17.598,5.35,26.911c-0.633-2.448-1.652-4.802-3.004-6.942
				c-0.479,4.442-0.984,8.979-2.893,13.019c-1.053,2.217-2.491,4.22-3.715,6.351c-3.484,6.06-5.247,13.156-9.587,18.583
				c-0.18-0.043-0.359-0.103-0.531-0.171c-2.482-1.018-3.278-4.083-3.741-6.728c-1.113-6.36-2.183-12.762-2.114-19.216
				c0.077-6.454,1.344-13.019,4.622-18.574c1.746-2.97,4.031-5.589,6.257-8.217c3.997-4.716,7.875-9.535,11.632-14.44
				c1.421-1.849,2.696-3.826,3.989-5.795c-1.464,3.227-1.318,6.522-0.368,10.006c0.556,2.063,1.335,4.057,1.815,6.137
				c0.497,2.14,0.06,4.057,0.265,6.12C285.034,210.922,281.345,207.661,277.451,207.755z"/>
			<g>
				<path style="fill:#111F37;" d="M299.398,438.079c-0.066,0.214-9.857-0.357-9.857-0.357s-1.257,3.781-8.071,5.421
					c-6.814,1.641-7.409,0.571-8.335,2.853c-0.926,2.283-0.397,1.569-0.397,1.569h27.652c0.277,0,0.487-0.269,0.439-0.563
					L299.398,438.079z"/>
				<path style="fill:#111F37;" d="M324.47,437.294c0,0,0.066,3.067,1.522,5.064c1.27,1.743,2.288,3.106,2.747,4.562
					c0.099,0.316-0.115,0.645-0.424,0.645h-13.369c-0.255,0-0.458-0.225-0.446-0.499c0.064-1.401,0.32-5.544,1.238-9.772H324.47z"/>
				<polygon style="fill:#38455F;" points="328.903,327.591 328.125,339.42 326.704,429.551 326.521,432.298 313.819,432.298 
					312.891,330.869 				"/>
				<g>
					<path style="fill:#415D6E;" d="M327.966,439.232c-0.071,0.094-0.175,0.154-0.286,0.214c-1.54,0.839-3.072,1.07-4.787,1.139
						c-1.397,0.051-2.794,0.103-4.191,0.111c-1.381,0.009-2.961-0.043-4.303-0.419c-0.421-0.12-0.857-0.291-1.119-0.668
						c-0.183-0.257-0.27-0.582-0.349-0.899c-0.31-1.258-0.619-2.516-0.929-3.775c-0.159-0.616-0.31-1.233-0.381-1.866
						c-0.056-0.548-0.024-0.907,0.159-1.121c0.135-0.171,0.349-0.24,0.667-0.248h0.175c0.746,0.026,1.492,0.009,2.239,0.009
						c0.278-0.017,0.556-0.017,0.833-0.017h6.145c2.04,0,4.199-0.205,6.216,0.017c-0.27,1.378-0.532,2.816-0.5,4.22
						c0.008,0.813,0.111,1.618,0.381,2.388c0.024,0.069,0.048,0.154,0.071,0.231C328.077,438.786,328.101,439.043,327.966,439.232z"
						/>
					<path style="fill:#507084;" d="M328.053,431.708c-0.27,1.378-0.532,2.816-0.5,4.22c-0.532-0.702-0.976-1.481-1.326-2.302
						c-0.095-0.24-0.198-0.488-0.357-0.693c-0.437-0.556-1.207-0.599-1.889-0.599c-1.643-0.009-3.287-0.051-4.93-0.12
						c-1.492-0.068-2.993-0.163-4.485-0.283c-0.452-0.034-1.437,0.017-2.119-0.231h0.175c1.024,0.034,2.056-0.009,3.072-0.009h6.145
						C323.878,431.691,326.037,431.485,328.053,431.708z"/>
					<path style="fill:#38455F;" d="M327.966,439.232c-0.071,0.094-0.175,0.154-0.286,0.214c-1.54,0.839-3.072,1.07-4.787,1.139
						c-1.397,0.051-2.794,0.103-4.191,0.111c-1.381,0.009-2.961-0.043-4.303-0.419c-0.421-0.12-0.857-0.291-1.119-0.668
						c-0.183-0.257-0.27-0.582-0.349-0.899c-0.31-1.258-0.619-2.516-0.929-3.775c-0.159-0.616-0.31-1.233-0.381-1.866
						c-0.056-0.548-0.024-0.907,0.159-1.121c0.135-0.171,0.349-0.24,0.667-0.248h0.175c0.746,0.026,1.492,0.009,2.239,0.009
						c0,0.411-0.056,0.847-0.079,1.335c-0.048,1.096,0.04,2.388,0.905,2.953c0.492,0.325,1.111,0.308,1.683,0.282
						c1.246-0.06,2.493-0.12,3.739-0.18c0.135-0.009,0.286,0,0.365,0.111c0.135,0.18-0.048,0.428-0.222,0.556
						c-0.889,0.651-2.096,0.83-2.755,1.746c0.302,0.291,0.738,0.334,1.143,0.342c2.794,0.111,5.589,0.009,8.367-0.308
						C328.077,438.786,328.101,439.043,327.966,439.232z"/>
				</g>
				<path style="fill:#415D6E;" d="M328.125,339.42l-1.421,90.131c-0.111,0.026-0.222,0.06-0.333,0.086
					c-1.929,0.488-3.89,0.967-5.875,0.959c-0.778-0.008-1.58-0.094-2.294-0.436c-2.12-1.018-1.762-4.117-1.897-6.231
					c-0.199-3.278-0.206-75.118,0.706-78.268c0.905-3.141,2.842-6.069,5.644-7.395c0.707-0.334,1.469-0.565,2.247-0.514
					c0.976,0.068,1.881,0.591,2.683,1.215C327.767,339.112,327.95,339.257,328.125,339.42z"/>
				<polygon style="fill:#38455F;" points="285.2,327.591 285.978,339.42 287.399,429.551 287.582,432.298 300.283,432.298 
					301.212,330.869 				"/>
				<g>
					<path style="fill:#415D6E;" d="M286.137,439.232c0.071,0.094,0.175,0.154,0.286,0.214c1.54,0.839,3.072,1.07,4.787,1.139
						c1.397,0.051,2.794,0.103,4.191,0.111c1.381,0.009,2.961-0.043,4.303-0.419c0.421-0.12,0.857-0.291,1.119-0.668
						c0.182-0.257,0.27-0.582,0.349-0.899c0.31-1.258,0.619-2.516,0.929-3.775c0.159-0.616,0.31-1.233,0.381-1.866
						c0.056-0.548,0.024-0.907-0.159-1.121c-0.135-0.171-0.349-0.24-0.667-0.248h-0.175c-0.746,0.026-1.492,0.009-2.239,0.009
						c-0.278-0.017-0.556-0.017-0.833-0.017h-6.145c-2.04,0-4.199-0.205-6.216,0.017c0.27,1.378,0.532,2.816,0.5,4.22
						c-0.008,0.813-0.111,1.618-0.381,2.388c-0.024,0.069-0.048,0.154-0.072,0.231C286.026,438.786,286.002,439.043,286.137,439.232
						z"/>
					<path style="fill:#507084;" d="M286.049,431.708c0.27,1.378,0.532,2.816,0.5,4.22c0.532-0.702,0.977-1.481,1.326-2.302
						c0.095-0.24,0.198-0.488,0.357-0.693c0.437-0.556,1.207-0.599,1.889-0.599c1.643-0.009,3.286-0.051,4.93-0.12
						c1.492-0.068,2.993-0.163,4.485-0.283c0.453-0.034,1.437,0.017,2.12-0.231h-0.175c-1.024,0.034-2.056-0.009-3.072-0.009h-6.145
						C290.225,431.691,288.066,431.485,286.049,431.708z"/>
					<path style="fill:#38455F;" d="M286.137,439.232c0.071,0.094,0.175,0.154,0.286,0.214c1.54,0.839,3.072,1.07,4.787,1.139
						c1.397,0.051,2.794,0.103,4.191,0.111c1.381,0.009,2.961-0.043,4.303-0.419c0.421-0.12,0.857-0.291,1.119-0.668
						c0.182-0.257,0.27-0.582,0.349-0.899c0.31-1.258,0.619-2.516,0.929-3.775c0.159-0.616,0.31-1.233,0.381-1.866
						c0.056-0.548,0.024-0.907-0.159-1.121c-0.135-0.171-0.349-0.24-0.667-0.248h-0.175c-0.746,0.026-1.492,0.009-2.239,0.009
						c0,0.411,0.056,0.847,0.079,1.335c0.048,1.096-0.04,2.388-0.905,2.953c-0.492,0.325-1.111,0.308-1.683,0.282
						c-1.246-0.06-2.493-0.12-3.739-0.18c-0.135-0.009-0.286,0-0.365,0.111c-0.135,0.18,0.048,0.428,0.222,0.556
						c0.889,0.651,2.096,0.83,2.755,1.746c-0.302,0.291-0.738,0.334-1.143,0.342c-2.794,0.111-5.589,0.009-8.367-0.308
						C286.026,438.786,286.002,439.043,286.137,439.232z"/>
				</g>
				<path style="fill:#415D6E;" d="M285.978,339.42l1.421,90.131c0.111,0.026,0.222,0.06,0.333,0.086
					c1.929,0.488,3.89,0.967,5.875,0.959c0.778-0.008,1.58-0.094,2.294-0.436c2.12-1.018,1.762-4.117,1.897-6.231
					c0.198-3.278,0.206-75.118-0.707-78.268c-0.905-3.141-2.842-6.069-5.644-7.395c-0.707-0.334-1.469-0.565-2.247-0.514
					c-0.976,0.068-1.881,0.591-2.683,1.215C286.335,339.112,286.153,339.257,285.978,339.42z"/>
			</g>
			<path style="fill:#111F37;" d="M322.397,371.375c11.208-2.651,21.583-7.911,29.55-16.361c0.68-0.721,1.35-1.473,1.778-2.366
				c1.247-2.604,0.188-5.67-0.844-8.367c-9.318-24.342-15.887-49.733-19.557-75.538c-3.643-25.615-6.514-52.261-4.251-78.133
				c0.049-0.559,0.091-1.132,0.126-1.712c0.161-2.544,0.133-5.165-0.755-7.555c-0.196-0.517-0.426-0.978-0.699-1.391
				c-0.517-0.783-1.174-1.384-1.936-1.845c-0.594-0.363-1.251-0.636-1.957-0.846c-1.705-0.496-3.697-0.615-5.787-0.58
				c-1.041,0.014-2.111,0.07-3.173,0.133c-0.294,0.021-0.58,0.035-0.874,0.056h-0.168c-0.028,0-0.07,0.007-0.098,0.007
				c-1.936,0.112-3.879,0.266-5.801,0.454c-0.363,0.028-0.727,0.07-1.083,0.105c-1.076,0.112-2.152,0.238-3.222,0.377
				c-0.259,0.028-0.51,0.063-0.769,0.098c-0.762,0.091-1.517,0.196-2.278,0.308c-0.042,0.007-0.084,0.014-0.126,0.021
				c-0.538,0.084-1.062,0.203-1.566,0.37c-3.746,1.174-6.597,4.375-8.393,7.799c-2.188,4.172-2.642,7.89-2.775,12.398
				c-0.014,0.447-0.028,0.902-0.035,1.363c-0.042,2.222-0.084,4.438-0.126,6.653c-0.591,31.28-4.669,62.369-9.949,93.168
				c-3.039,17.724-5.278,34.465-12.704,51.178c-0.882,1.985-1.814,4.271-0.903,6.243c0.401,0.868,1.116,1.546,1.844,2.166
				C279.892,371.519,304.83,375.531,322.397,371.375z"/>
			<path style="fill:#0D1721;" d="M307.834,371.254c-15.354,0-30.575-5.012-39.723-13.078c-0.558-0.492-1.109-1.026-1.362-1.595
				c-0.565-1.265,0.098-3.024,0.889-4.866c6.526-15.211,8.959-30.261,11.537-46.195c0.311-1.921,0.623-3.853,0.945-5.795
				c6.207-37.507,9.201-66.547,9.705-94.159l0.122-6.706c0.007-0.46,0.02-0.909,0.033-1.351c0.129-4.557,0.582-7.939,2.51-11.75
				c1.06-2.092,3.403-5.786,7.19-7.015c0.406-0.14,0.816-0.24,1.283-0.315l0.107-0.019c0.725-0.11,1.445-0.214,2.172-0.304
				c0.294-0.041,0.51-0.072,0.73-0.096c1.063-0.144,2.094-0.269,3.127-0.38l0.313-0.033c0.231-0.025,0.464-0.05,0.697-0.069
				c1.902-0.193,3.762-0.344,5.564-0.453l0.112-0.007h0.158l0.908-0.06c0.956-0.059,1.995-0.116,2.992-0.13
				c0.211-0.004,0.416-0.006,0.62-0.006c1.879,0,3.359,0.171,4.524,0.522c0.581,0.179,1.075,0.398,1.501,0.668
				c0.573,0.359,1.017,0.796,1.362,1.339c0.196,0.306,0.363,0.653,0.512,1.06c0.79,2.206,0.762,4.724,0.629,6.895
				c-0.033,0.573-0.073,1.135-0.119,1.683c-2.249,26.635,0.664,53.777,4.146,79.142c3.589,26.143,10.024,51.883,19.124,76.505
				c0.97,2.625,1.767,5.141,0.875,7.071c-0.318,0.687-0.886,1.339-1.44,1.947c-7.114,7.815-16.509,13.197-27.925,15.994
				c-4.214,1.033-8.862,1.556-13.816,1.556H307.834z"/>
			<path style="fill:#E3C2C0;" d="M320.474,176.727c-2.106,3.484-10.888,18.266-16.537,30.669c-0.642,1.404-3.484-3.432-3.484-3.432
				c-3.638-8.44-0.993-22.058-0.18-25.678c0.069-0.017,0.137-0.034,0.206-0.043c0.034-0.008,0.077-0.017,0.12-0.026
				c0.762-0.111,1.515-0.214,2.277-0.308c0.265-0.034,0.513-0.068,0.77-0.094c1.07-0.137,2.149-0.265,3.227-0.377
				c0.351-0.034,0.719-0.077,1.078-0.103c1.926-0.188,3.869-0.342,5.803-0.454c0.026,0,0.069-0.008,0.094-0.008h0.171
				c0.291-0.026,0.582-0.034,0.873-0.06c1.061-0.06,2.131-0.12,3.175-0.128C318.891,176.667,319.695,176.684,320.474,176.727z"/>
			<path style="fill:#C2805B;" d="M302.922,163.947c0.022,2.657,0.145,5.242,0.297,7.819c0,0.058,0.007,0.109,0.007,0.167
				c-0.007,0.065,0.015,0.094,0,0.145c0.007,0.058,0.007,0.101,0.007,0.152c0.043,0.413,0.065,0.825,0.101,1.245
				c0.015,0.181,0.029,0.355,0.036,0.536v0.014c0.036,0.543,0.08,1.101,0.123,1.658c0.029,0.369,0.051,0.738,0.08,1.108
				c0.007,0.203,0.036,0.427,0.051,0.644v0.014c0.036,0.492,0.065,0.977,0.116,1.477c0.051,0.536,0.087,1.072,0.13,1.622
				c0.21,2.643-0.376,7.081,2.273,7.414c0.905,0.116,1.767-0.304,2.563-0.768c4.402-2.527,6.053-5.56,6.212-10.889
				c0.022-0.08,0.007-0.203,0.007-0.376c-0.014-0.282-0.036-0.71-0.065-1.224c0.007-0.072-0.007-0.123-0.007-0.195
				c-0.014-0.246-0.029-0.5-0.044-0.767c-0.014-0.21-0.022-0.434-0.029-0.659c-0.022-0.246-0.029-0.521-0.043-0.789
				c-0.007-0.138-0.015-0.275-0.029-0.413c-0.007-0.138-0.014-0.275-0.022-0.42c-0.065-0.825-0.116-1.687-0.181-2.52
				c-0.051-0.767-0.116-1.52-0.159-2.201c-0.087-0.912-0.145-1.701-0.21-2.295c-0.072-0.652-0.138-1.021-0.174-1.028
				C313.949,163.419,302.922,163.947,302.922,163.947z"/>
			<path style="fill:#A86E51;" d="M302.922,163.947c0.022,2.657,0.145,5.242,0.297,7.819c0,0.058,0.007,0.109,0.007,0.167
				c-0.007,0.065,0.015,0.094,0,0.145c0.007,0.058,0.007,0.101,0.007,0.152c0.043,0.413,0.065,0.825,0.101,1.245
				c0.015,0.181,0.029,0.355,0.036,0.536v0.014c0.036,0.543,0.08,1.101,0.123,1.658c3.019,0.775,8.037-0.188,11.316-1.94
				c-0.014-0.21-0.022-0.434-0.029-0.659c-0.022-0.246-0.029-0.521-0.043-0.789c-0.007-0.138-0.015-0.275-0.029-0.413
				c-0.007-0.138-0.014-0.275-0.022-0.42c-0.065-0.825-0.116-1.687-0.181-2.52c-0.051-0.767-0.116-1.52-0.159-2.201
				c-0.087-0.912-0.145-1.701-0.21-2.295c-0.072-0.652-0.138-1.021-0.174-1.028C313.949,163.419,302.922,163.947,302.922,163.947z"
				/>
			<path style="fill:#C2805B;" d="M330.721,145.073c-0.255,1.651-0.519,3.293-0.878,4.916c-0.519,2.397-1.236,4.737-2.359,6.964
				c-3.331,6.586-9.238,12.512-16.4,14.871c-3.001,0.981-6.483,1.038-9.606,0.764c-3.737-0.321-7.945-1.406-11.021-3.661
				c-1.68-1.236-2.227-3.473-2.604-5.52c-1.548-8.36-2.217-16.853-2.633-25.326c-0.113-2.34-0.34-5.039-0.264-7.738
				c0.076-2.888,0.491-5.681,1.642-8.172v-0.009c0.689-1.491,1.651-2.878,2.953-4.095c2.331-2.189,5.247-3.661,8.219-4.831
				c7.275-2.85,16.938-3.973,24.317-0.425C334.666,118.869,332.486,133.495,330.721,145.073z"/>
			<path style="fill:#0D0D0D;" d="M292.732,128.072c-2.434,0.294-4.824,0.806-7.159,1.556c-1.573,0.505-0.78,2.948,0.798,2.441
				c2.128-0.683,4.285-1.165,6.504-1.432C294.507,130.44,294.379,127.873,292.732,128.072z"/>
			<path style="fill:#0D0D0D;" d="M307.862,129.316c2.692,0.652,5.292,1.514,7.787,2.601c1.681,0.733,0.33,3.032-1.356,2.297
				c-2.274-0.992-4.617-1.788-7.072-2.382C305.418,131.396,306.04,128.876,307.862,129.316z"/>
			<g>
				<path style="fill:#0D0D0D;" d="M290.19,136.293c-2.474,0.04-3.889,3.253-3.4,5.335c0.135,0.575,0.613,0.804,0.926,0.359
					c0.868-1.236,1.322-2.917,2.693-3.056c1.552-0.157,2.747,1.819,3.56,3.536c0.139,0.293,0.466,0.121,0.403-0.249
					C293.859,139.21,292.532,136.255,290.19,136.293z"/>
				<path style="fill:#0D0D0D;" d="M293.8,142.646c0,2.403-0.962,4.352-2.15,4.352s-2.15-1.948-2.15-4.352
					c0-2.403,0.962-4.351,2.15-4.351S293.8,140.242,293.8,142.646z"/>
				<path style="fill:#FFFFFF;" d="M291.297,143.633c0,0.545-0.661,0.987-1.476,0.987c-0.816,0-1.477-0.442-1.477-0.987
					c0-0.545,0.661-0.987,1.477-0.987C290.637,142.646,291.297,143.088,291.297,143.633z"/>
			</g>
			<g>
				<path style="fill:#0D0D0D;" d="M310.173,137.002c-2.474,0.04-3.889,3.253-3.4,5.335c0.135,0.575,0.613,0.804,0.926,0.359
					c0.868-1.236,1.322-2.917,2.693-3.056c1.552-0.157,2.747,1.819,3.56,3.536c0.139,0.293,0.466,0.121,0.403-0.249
					C313.842,139.92,312.516,136.964,310.173,137.002z"/>
				<path style="fill:#0D0D0D;" d="M313.783,143.355c0,2.403-0.962,4.352-2.15,4.352c-1.187,0-2.149-1.948-2.149-4.352
					c0-2.403,0.962-4.352,2.149-4.352C312.821,139.003,313.783,140.952,313.783,143.355z"/>
				<path style="fill:#FFFFFF;" d="M311.28,144.342c0,0.545-0.661,0.987-1.476,0.987c-0.815,0-1.476-0.442-1.476-0.987
					c0-0.545,0.661-0.987,1.476-0.987C310.62,143.355,311.28,143.797,311.28,144.342z"/>
			</g>
			<path style="fill:#F6E4B4;" d="M300.95,168.175c-1.427-0.063-3.715-0.457-4.539-1.643c-0.367-0.528-0.44-1.174-0.537-1.792
				c-0.323-2.057-1.074-4.007-1.941-5.917c-0.021-0.045-0.04-0.101-0.008-0.14c0.026-0.033,0.076-0.039,0.121-0.044
				c4.22-0.398,8.32-0.861,12.225-2.517c-0.109,0.193,0.105,0.836,0.132,1.042c0.1,0.775,0.199,1.55,0.295,2.325
				c0.293,2.366,0.858,5.658-1.102,7.575C304.395,168.238,302.582,168.247,300.95,168.175z"/>
			<polygon style="fill:#9E1C38;" points="303.344,189.468 306.713,189.949 308.866,184.229 305.375,183.006 302.922,183.637 			"/>
			<polygon style="fill:#FFE7E6;" points="314.854,174.511 305.375,183.006 309.484,190.859 317.358,176.699 			"/>
			<polygon style="fill:#FFE7E6;" points="303.574,176.791 305.375,183.006 301.31,189.468 300.456,179.089 			"/>
			<path style="fill:#9E1C38;" d="M307.464,200.094c-1.241,2.456-2.439,4.922-3.526,7.301c-0.642,1.404-3.484-3.432-3.484-3.432
				c-0.214-0.497-0.411-1.019-0.573-1.549l3.467-12.95l3.364,0.488L307.464,200.094z"/>
			<path style="fill:#020A15;" d="M260.412,251.927c0.631,3.041,1.648,6.164,3.905,8.298c0.53,0.501,1.183,0.96,1.912,0.943
				c0.49-0.012,0.949-0.239,1.359-0.507c2.262-1.481,3.373-4.178,4.164-6.763c2.633-8.61,3.125-17.706,3.598-26.697
				c0.069-1.312,0.119-2.709-0.542-3.844c-1.427-2.452-5.992-2.902-8.477-2.099c-2.464,0.796-3.392,3.031-4.214,5.302
				C259.212,234.586,258.681,243.585,260.412,251.927z"/>
			<path style="fill:#C2805B;" d="M275.116,228.188c-1.131,4.344-3.524,8.352-6.813,11.408c-1.55,1.44-4.781,0.725-5.81-0.959
				c-1.397-2.286-2.054-5.023-2.272-7.67c-0.226-2.738,0.015-5.494,0.386-8.217c0.426-3.128,1.023-6.232,1.788-9.295
				c1.041-4.17,2.223-8.3,3.097-12.507c0.426-2.048,0.678-4.134,1.254-6.145c0.082-0.285,0.202-0.604,0.479-0.709
				c0.173-0.066,0.366-0.03,0.547,0.009c1.531,0.324,5.607,0.538,6.152,2.273c0.136,0.432,0.132,0.894,0.132,1.347
				c0.002,7.197,1.671,14.265,1.913,21.457C276.069,222.203,275.881,225.251,275.116,228.188z"/>
			<g>
				<g>
					<path style="fill:#FFD1A0;" d="M276.285,191.767c0.969,6.137,1.993,12.361,1.281,18.534c-0.075,0.647-0.175,1.311-0.514,1.867
						c-0.428,0.702-1.179,1.138-1.932,1.47c-2.629,1.16-5.662,1.378-8.429,0.607c-0.777-0.217-1.579-0.544-2.041-1.205
						c-0.555-0.796-0.477-1.855-0.376-2.819c0.73-7.041,1.409-14.126,0.925-21.188c-0.296-4.312-1.023-8.582-1.801-12.833
						c-1.469-8.035-3.124-16.042-5.264-23.925c-0.236-0.871-0.458-1.876,0.06-2.615c0.301-0.428,0.795-0.672,1.281-0.866
						c3.444-1.37,7.54-1.106,11.085-0.252c2.659,0.641,3.597,2.14,3.424,4.824c-0.534,8.286-0.577,16.302,0.358,24.576
						C274.865,182.567,275.559,187.171,276.285,191.767z"/>
					<path style="fill:#F4BB87;" d="M263.005,173.301c-0.158,0.871,0.223,1.987,0.391,2.901c0.729,3.978,1.411,7.966,1.734,11.992
						c1.26,0.464,2.425,1.193,3.429,2.084c1.942,1.733,3.297,4.045,4.282,6.46c2.217,5.428,2.69,11.566,1.326,17.268
						c0.322-0.104,0.644-0.227,0.957-0.369c0.748-0.331,1.497-0.767,1.932-1.468c0.331-0.559,0.436-1.222,0.511-1.866
						c0.711-6.176-0.313-12.4-1.279-18.538c-0.729-4.594-1.421-9.198-1.942-13.82c-0.938-8.279-0.9-16.293-0.36-24.581
						c0.133-2.112-0.417-3.495-1.97-4.291c0.114,0.54,0.332,1.118,0.388,1.535c0.398,2.719,0.701,5.456,0.549,8.203
						c-0.11,2.081-0.571,4.108-1.188,6.087c-0.605,1.937-2.017,3.796-3.199,5.442c-1.096,1.527-2.787,1.208-4.358,1.693
						C263.44,172.269,263.108,172.733,263.005,173.301z"/>
					<path style="fill:#721237;" d="M262.923,173.654c0.161,0.843,0.322,1.696,0.474,2.548c0.512,2.775,0.995,5.56,1.355,8.355
						c2.406-0.047,4.802-0.341,7.114-0.947c1.042-0.275,2.065-0.606,3.06-1.023c-0.208-1.544-0.407-3.097-0.578-4.641
						c-0.256-2.236-0.436-4.462-0.559-6.678c-0.54,0.388-1.127,0.701-1.743,0.957c-1.572,0.663-3.277,0.919-4.973,1.118
						C265.698,173.502,264.315,173.645,262.923,173.654z"/>
					<path style="fill:#CA2337;" d="M262.439,171.73c0.874,0.121,1.727,0.387,2.515,0.783c0.677,0.341,1.477,1.408,1.931,0.532
						c0.227-0.438,0.695-0.741,1.187-0.769c0.531-0.031,0.96,0.591,1.34,0.561c0.394-0.031,0.635-0.742,0.803-1.018
						c0.569-0.936,1.146-1.881,1.912-2.664c0.767-0.783,1.752-1.4,2.841-1.52c0.478-0.053,0.981-0.004,1.403,0.228
						c0.865,0.476,1.165,1.556,1.34,2.528c0.342,1.903,0.522,3.834,0.537,5.767c0.013,1.689-0.298,3.705-2.114,4.385
						c-1.673,0.627-3.324-0.746-4.805-1.309c-0.07-0.026-0.144-0.054-0.218-0.043c-0.157,0.021-0.241,0.189-0.322,0.325
						c-0.26,0.44-0.75,0.735-1.26,0.758c-0.51,0.024-1.025-0.224-1.325-0.637c0.135,0.187-1.722,2.297-2.002,2.582
						c-0.913,0.93-1.911,1.544-3.232,1.693c-0.142,0.016-0.289,0.026-0.425-0.018c-0.242-0.079-0.396-0.309-0.526-0.527
						c-1.063-1.787-1.776-3.721-2.564-5.659c-0.568-1.396-1.145-2.926-0.723-4.374c0.161-0.552,0.484-1.08,0.983-1.366
						c0.378-0.217,0.824-0.279,1.259-0.302C261.463,171.641,261.954,171.663,262.439,171.73z"/>
					<path style="fill:#9F1D37;" d="M263.425,175.965c0.294,0.104,0.606,0.218,0.919,0.275
						C264.041,176.126,263.728,176.041,263.425,175.965z"/>
					<path style="fill:#9F1D37;" d="M260.479,180.219c0.445,1.08,0.938,2.141,1.544,3.145c0.123,0.218,0.284,0.455,0.521,0.531
						c0.133,0.047,0.284,0.038,0.426,0.019c1.317-0.152,2.321-0.767,3.23-1.696c0.284-0.284,2.141-2.396,2.008-2.576
						c0.294,0.407,0.815,0.654,1.317,0.635c0.511-0.028,1.004-0.322,1.26-0.758c0.085-0.142,0.171-0.303,0.322-0.322
						c0.076-0.009,0.152,0.009,0.218,0.038c1.487,0.568,3.135,1.932,4.812,1.307c1.487-0.559,1.97-2.027,2.084-3.476
						c-0.483,0.881-1.544,1.393-2.577,1.26c-0.985-0.114-1.885-0.919-1.989-1.904c-0.095-0.9,0.587-1.828,1.459-1.98
						c-0.644,0.057-1.279,0.208-1.932,0.237c-0.729,0.029-1.525-0.123-2.036-0.644c-0.521-0.521-0.616-1.487-0.057-1.961
						c-0.322,0.01-0.644-0.019-0.957-0.095c-0.161,0.322-0.388,0.834-0.72,0.862c-0.038,0-0.066,0-0.104-0.019
						c0.227,1.127,0.398,2.264,0.53,3.41c0.076,0.673-0.019,1.563-0.682,1.705c-0.493,0.095-0.919-0.341-1.203-0.748
						c-0.786-1.137-1.317-2.453-1.544-3.808c-0.057,0-0.114-0.009-0.171-0.038c0.019,0.729,0.426,1.525,0.114,2.198
						c-0.227,0.493-0.796,0.758-1.336,0.777c-0.227,0.01-0.445-0.019-0.663-0.076c0.493,0.189,0.938,0.455,1.26,0.862
						c0.834,1.089,0.246,2.842-0.966,3.514c-1.203,0.663-2.747,0.417-3.95-0.256C260.621,180.323,260.545,180.275,260.479,180.219z"
						/>
					<path style="fill:#E13535;" d="M275.26,168.591c0.138-0.059,0.287-0.113,0.433-0.082c0.216,0.046,0.35,0.26,0.441,0.462
						c0.527,1.166,0.447,2.587-0.21,3.686c-0.191,0.32-0.442,0.624-0.784,0.772c-0.342,0.148-0.791,0.098-1.021-0.195
						c-0.201-0.256-0.255-0.649-0.411-0.924c-1.106,0.608-2.509,0.522-1.607-0.936C272.824,170.204,273.998,169.128,275.26,168.591z
						"/>
					<path style="fill:#E13535;" d="M264.352,173.475c0.324,0.211,0.651,0.497,0.689,0.882c0.06,0.6-0.629,1.026-1.232,1.023
						c-0.603-0.003-1.176-0.268-1.777-0.317c0.738,0.978,1.105,2.228,1.012,3.449c-0.01,0.131-0.026,0.267-0.092,0.381
						c-0.215,0.376-0.79,0.301-1.158,0.073c-0.555-0.344-0.946-0.899-1.251-1.476c-0.393-0.743-0.672-1.561-0.692-2.401
						c-0.022-0.947,0.396-2.555,1.53-2.703C262.226,172.277,263.671,173.03,264.352,173.475z"/>
					<path style="fill:#FFDEB6;" d="M258.13,152.275c0.701,2.567,1.345,5.153,1.942,7.739c0.095,0.009,0.18-0.019,0.265-0.066
						c0.133-0.076,0.218-0.208,0.294-0.331c1.525-2.567,0.104-6.394,2.217-8.497c1.203-1.194,3.079-1.307,4.765-1.279
						c0.89,0.01,1.989-0.076,2.359-0.89c0.076-0.161,0.104-0.341,0.104-0.521c-3.429-0.758-7.303-0.938-10.6,0.369
						c-0.483,0.189-0.976,0.436-1.279,0.862C257.675,150.399,257.902,151.403,258.13,152.275z"/>
					<path style="fill:#FFDEB6;" d="M264.647,213.041c0.464,0.663,1.269,0.985,2.046,1.203c1.951,0.549,4.035,0.597,6.015,0.171
						c-0.199-0.313-0.426-0.606-0.673-0.862c-0.843-0.871-1.904-1.516-2.766-2.378c-1.648-1.639-2.444-3.95-2.804-6.242
						c-0.265-1.658-0.322-3.334-0.445-5.002c-0.085-1.175-0.057-2.614-0.578-3.704c-0.029-0.066-0.066-0.123-0.104-0.18
						c-0.114,4.736-0.568,9.463-1.061,14.171C264.173,211.184,264.098,212.245,264.647,213.041z"/>
				</g>
				<g>
					<path style="fill:#C2805B;" d="M263.385,196.26c0.366,0.072,0.759-0.012,1.124-0.104c0.94-0.234,1.861-0.551,2.821-0.701
						c0.955-0.159,1.968-0.159,2.867,0.218c0.287,0.124,0.584,0.29,0.898,0.306c0.319,0.025,0.683-0.161,0.732-0.48
						c0.034-0.324-0.244-0.546-0.527-0.755c-0.071-0.046-0.132-0.097-0.189-0.139c-0.373-0.269-0.648-0.646-0.975-0.985
						c-0.185-0.2-0.397-0.386-0.652-0.515c-0.146-0.102-0.32-0.166-0.508-0.188c0.167-0.18,0.439-0.201,0.669-0.142
						c0.226,0.073,0.429,0.216,0.636,0.346c0.391,0.236,1.169,0.65,1.641,0.562c0.449-0.089,0.566-0.643,0.357-0.983
						c-0.076-0.126-0.19-0.233-0.303-0.316c-0.164-0.133-0.351-0.205-0.489-0.363c-0.172-0.196-0.325-0.404-0.504-0.594
						c-0.347-0.368-0.731-0.702-1.139-1.001c-0.189-0.139-0.401-0.254-0.626-0.304c0.484,0.071,0.972,0.174,1.447,0.296
						c0.395,0.104,0.804,0.236,1.216,0.191c0.295-0.021,0.907-0.252,0.848-0.645c-0.025-0.164-0.181-0.308-0.342-0.438
						c-0.175-0.134-0.368-0.236-0.481-0.319c-1.019-0.703-2.131-1.289-3.293-1.742c-0.334-0.123-0.663-0.238-1.01-0.272
						c-0.296-0.025-0.6,0.024-0.89,0.055c-0.675,0.062-1.345,0.064-2.012-0.019c0.075,0.009,0.262-0.087,0.439-0.177
						c0.121-0.062,0.233-0.119,0.303-0.143c0.313-0.078,0.627-0.179,0.94-0.281c0.725-0.218,1.455-0.402,2.194-0.545
						c0.477-0.103,0.974-0.168,1.452-0.13c0.45,0.029,0.678,0.336,0.967,0.671c0.242,0.288,0.507,0.577,0.85,0.719
						c0.344,0.142,0.798,0.087,1.011-0.211c-0.248-0.415-0.5-0.816-0.747-1.231c-0.286-0.466-0.562-0.937-0.843-1.394
						c-0.219-0.359-0.476-0.746-0.884-0.855c-0.23-0.059-0.46-0.024-0.689,0.011c-2.636,0.418-5.3,0.85-7.761,1.885
						c-0.458,0.187-0.402,0.618-0.323,1.048c0.089,0.543,0.558,1.069,0.334,1.643c-0.128,0.325-0.441,0.52-0.508,0.872
						c-0.063,0.315,0.048,0.646,0.159,0.932c0.153,0.369,0.354,0.738,0.348,1.141c-0.01,0.394-0.218,0.771-0.163,1.155
						c0.086,0.698,0.943,1.131,0.968,1.824c0.028,0.516-0.224,1.127-0.094,1.567C262.721,195.975,262.929,196.175,263.385,196.26z"
						/>
					<path style="fill:#A86E51;" d="M270.665,190.418c0.395,0.104,0.804,0.236,1.216,0.191c0.295-0.021,0.907-0.252,0.848-0.645
						c-0.025-0.164-0.181-0.308-0.342-0.438c-0.037,0.019-0.065,0.033-0.107,0.043c-0.402,0.135-0.839,0.04-1.257-0.04
						c-2.235-0.388-4.578-0.155-6.68,0.684c1.833-0.054,3.694-0.099,5.502,0.213c-0.189-0.139-0.401-0.254-0.626-0.304
						C269.702,190.192,270.19,190.295,270.665,190.418z"/>
					<path style="fill:#A86E51;" d="M270.996,186.621c0.242,0.288,0.507,0.577,0.85,0.719c0.344,0.142,0.798,0.087,1.011-0.211
						c-0.248-0.415-0.5-0.816-0.747-1.231c-0.318,0.139-0.708,0.044-0.995-0.15c-0.321-0.236-0.535-0.586-0.73-0.922
						c-2.512,0.131-4.99,0.857-7.178,2.081c0.625,0.187,1.277,0.195,1.933,0.142c0.121-0.062,0.233-0.119,0.303-0.143
						c0.313-0.078,0.627-0.179,0.94-0.281c0.725-0.218,1.455-0.402,2.194-0.545c0.477-0.103,0.974-0.168,1.452-0.13
						C270.479,185.979,270.707,186.286,270.996,186.621z"/>
					<path style="fill:#A86E51;" d="M270.281,193.122c0.391,0.236,1.169,0.65,1.641,0.562c0.449-0.089,0.566-0.643,0.357-0.983
						c-0.076-0.126-0.19-0.233-0.303-0.316c-0.96,0.079-1.956-0.095-2.928-0.222c-1.319-0.161-2.805-0.143-3.8,0.743
						c1.399-0.28,2.863-0.204,4.236,0.201c-0.146-0.102-0.32-0.166-0.508-0.188c0.167-0.18,0.439-0.201,0.669-0.142
						C269.871,192.849,270.074,192.992,270.281,193.122z"/>
					<path style="fill:#A86E51;" d="M263.385,196.26c0.366,0.072,0.759-0.012,1.124-0.104c0.94-0.234,1.861-0.551,2.821-0.701
						c0.955-0.159,1.968-0.159,2.867,0.218c0.287,0.124,0.584,0.29,0.898,0.306c0.319,0.025,0.683-0.161,0.732-0.48
						c0.034-0.324-0.244-0.546-0.513-0.75l-0.014-0.005c-0.23-0.035-0.46-0.094-0.691-0.176c-0.386-0.132-0.753-0.321-1.157-0.374
						c-0.361-0.039-0.736,0.035-1.096,0.113c-1.909,0.411-3.827,0.874-5.703,1.421C262.721,195.975,262.929,196.175,263.385,196.26z
						"/>
				</g>
				<path style="fill:#A86E51;" d="M275.896,192.732c0.242,0.485,0.447,1.412,0.931,1.721c0.537,0.343,0.946-0.143,1.006-0.681
					c0.104-0.928,0.08-1.73-0.518-2.449c-0.667-0.802-1.457-1.633-2.366-2.161c-0.133-0.077-0.281-0.15-0.435-0.133
					c-0.254,0.027-0.427,0.298-0.43,0.553c-0.003,0.256,0.12,0.495,0.251,0.715C274.827,191.127,275.465,191.869,275.896,192.732z"
					/>
			</g>
			<path style="fill:#C2805B;" d="M401.749,114.71c-0.553,0.778-0.85,1.502-0.212,1.673c0.223,0.06,0.46,0.02,0.688-0.022
				c1.806-0.338,3.58-0.847,5.292-1.515c1.582-0.618,3.055-1.42,4.656-1.969c0.397-0.136,0.81-0.248,1.229-0.241
				c0.326,0.005,0.648,0.083,0.953,0.197c0.254,0.095,0.529,0.249,0.585,0.515c0.084,0.393-0.345,0.687-0.708,0.858
				c-2.143,1.012-4.29,2.026-6.523,2.819c-1.148,0.408-2.368,0.788-3.209,1.67c-0.149,0.156-0.289,0.337-0.322,0.551
				c-0.098,0.631,0.963,0.663,1.396,0.685c1.949,0.101,3.911-0.059,5.817-0.474c0.574-0.125,1.15-0.274,1.737-0.267
				c0.699,0.009,2.111,0.444,1.092,1.216c-0.337,0.256-0.766,0.351-1.18,0.44c-2.236,0.48-4.471,0.961-6.707,1.442
				c-0.333,0.072-0.657,0.137-0.969,0.272c-0.097,0.042-0.781,0.369-0.438,0.425c1.857,0.301,3.742,0.455,5.571,0.896
				c0.507,0.122,2.611,0.667,1.483,1.42c-0.348,0.232-0.957,0.027-1.328-0.024c-1.406-0.193-2.737-0.55-4.17-0.515
				c-1.491,0.037-2.959,0.369-4.343,0.917c-1.595,0.632-3.122,1.43-4.734,2.017c-1.564,0.57-3.211,0.941-4.677,1.728
				c-0.762,0.409-1.462,0.924-2.144,1.457c-1.278,1-2.499,2.073-3.655,3.212c-0.113,0.111-0.238,0.23-0.396,0.248
				c-0.151,0.017-0.294-0.062-0.424-0.14c-0.834-0.505-1.606-1.113-2.293-1.805c-0.108-0.109-0.221-0.236-0.225-0.389
				c-0.005-0.184,0.147-0.33,0.286-0.45c2.629-2.271,4.783-4.667,5.552-8.169c0.252-1.149,0.345-2.329,0.348-3.505
				c0.003-1.207-0.089-2.416-0.322-3.6c-0.313-1.589-0.877-3.128-1.072-4.736c-0.049-0.401-0.023-0.902,0.338-1.083
				c0.249-0.126,0.555-0.032,0.792,0.116c0.793,0.492,1.119,1.463,1.388,2.356c0.251,0.835,0.503,1.67,0.754,2.505
				c0.311,1.032,0.977,2.156,2.256,1.879c0.521-0.113,0.973-0.53,1.41-0.819c1.951-1.294,3.906-2.591,5.703-4.091
				c1.558-1.3,2.991-2.748,4.589-3.999c0.281-0.22,0.582-0.441,0.935-0.495c0.928-0.143,0.977,0.78,0.48,1.322
				c-0.359,0.393-0.733,0.771-1.113,1.142c-0.741,0.725-1.508,1.423-2.241,2.156C403.437,112.773,402.41,113.781,401.749,114.71z"/>
			<path style="fill:#0D1721;" d="M338.818,169.413c6.487-4.857,12.115-10.749,17.71-16.612c9.57-10.029,18.271-20.661,27.49-30.983
				c0.278-0.311,0.583-0.638,0.989-0.733c0.702-0.165,1.344,0.415,1.811,0.966c2.68,3.166,3.764,6.936,5.265,10.739
				c1.999,5.062,3.825,10.192,5.474,15.379c3.43,10.877,5.596,22.274,7.822,33.428c-7.29,3.92-15.222,6.472-23.103,9.003
				c-12.161,3.905-24.392,7.598-36.623,11.451c-5.326,1.678-10.652,3.355-15.978,5.033c-3.041,0.958-10.281,3.486-11.916-0.706
				c-0.612-1.569-0.206-4.252-0.277-5.904c-0.122-2.828-0.156-5.659-0.092-8.489c0.072-3.182,0.016-6.878,1.749-9.691
				c1.548-2.514,4.343-3.883,6.88-5.185C330.481,174.818,334.791,172.428,338.818,169.413z"/>
			<path style="fill:#111F37;" d="M324.726,205.372c5.326-1.678,10.652-3.355,15.978-5.033c12.23-3.852,24.462-7.546,36.623-11.451
				c7.881-2.531,15.813-5.083,23.103-9.003c-2.226-11.154-4.393-22.552-7.822-33.428c-1.65-5.186-3.476-10.317-5.474-15.379
				c-1.173-2.97-2.101-5.915-3.723-8.572c0.203-0.229,0.404-0.459,0.608-0.687c0.278-0.311,0.583-0.638,0.989-0.733
				c0.702-0.165,1.344,0.415,1.811,0.966c2.68,3.166,3.764,6.936,5.265,10.739c1.999,5.062,3.825,10.192,5.474,15.379
				c3.43,10.877,5.596,22.274,7.822,33.428c-7.29,3.92-15.222,6.472-23.103,9.003c-12.161,3.905-24.392,7.598-36.623,11.451
				c-5.326,1.677-10.652,3.355-15.978,5.033c-2.884,0.909-9.539,3.219-11.612-0.123
				C320.508,206.761,323.168,205.863,324.726,205.372z"/>
			<path style="fill:#A86E51;" d="M296.555,145.006c-0.16,0.906-0.444,1.801-0.939,2.577c-0.542,0.851-1.317,1.529-1.893,2.357
				c-0.576,0.828-0.942,1.922-0.531,2.843c0.291,0.652,0.931,1.1,1.613,1.311c0.683,0.211,1.411,0.212,2.124,0.18
				c0.924-0.042,1.86-0.142,2.717-0.49c0.857-0.348,1.635-0.971,1.996-1.823c0.201-0.474,0.261-1.032,0.045-1.5
				c-0.329-0.712-1.164-1.012-1.739-1.545c-0.47-0.437-0.761-1.029-1.018-1.617c-0.318-0.729-0.601-1.474-0.846-2.231
				c-0.253-0.78-0.314-1.864-0.681-2.578c-0.244-0.476-0.441-0.758-0.725-0.182C296.411,142.85,296.672,144.342,296.555,145.006z"/>
			<path style="fill:#2C2C2C;" d="M331.051,145.13c-0.2,1.147-0.411,2.258-0.622,3.32c0.124-0.623-2.85,0.812-2.869,0.821
				c-1.065,0.486-2.211,0.737-3.385,0.653c-0.367-0.026-0.768-0.102-1.001-0.387c-0.213-0.261-0.226-0.626-0.23-0.963
				c-0.084-6.543-0.372-13.138-1.787-19.548c-0.573-2.596-0.857-5.415-2.675-7.472c-1.505-1.703-3.732-2.863-5.854-3.58
				c-4.362-1.475-9.157-1.312-13.667-0.756c-2.404,0.296-4.774,0.886-7.032,1.766c-2.042,0.796-3.429,2.136-5.275,3.114
				c0.628-1.522,1.7-2.909,2.9-4.031c2.331-2.189,5.247-3.661,8.219-4.831c7.275-2.85,16.938-3.973,24.317-0.425
				C333.912,118.496,333.051,133.646,331.051,145.13z"/>
			<path style="fill:#A86E51;" d="M325.742,144.478c0.908-2.753,2.538-5.015,5.606-5.535c0.619-0.105,1.271-0.114,1.858,0.11
				c0.928,0.355,1.553,1.238,1.956,2.147c0.879,1.981,0.955,4.254,0.518,6.377c-0.437,2.123-1.361,4.116-2.419,6.008
				c-0.993,1.775-2.403,3.663-4.431,3.811c-2.653,0.193-4.599-1.31-4.396-3.962C324.628,150.897,324.776,147.409,325.742,144.478z"
				/>
		</g>
		<g>
			<path style="fill:#39679E;" d="M130.816,85.714c-0.019,0.324-16.971,19.992-21.489,25.373c-1.53,1.822-1.813,4.384-0.718,6.497
				l6.288,12.142c1.917,3.701,4.227,7.176,6.832,10.43c2.558,3.196,5.534,7.91,4.812,11.875c0,0-5.898,3.738-8.784-0.707
				c0,0,0.603-8.723-1.216-12.538L106.3,117.021c-0.997-2.118-0.645-4.625,0.896-6.387l22.95-26.061L130.816,85.714z"/>
			<polygon style="fill:#111F37;" points="98.514,111.837 98.493,111.837 126.477,61.504 184.066,61.647 184.056,61.665 
				184.076,61.665 184.066,61.683 184.087,61.683 184.077,61.701 184.098,61.701 184.088,61.719 184.108,61.719 184.098,61.737 
				184.119,61.737 184.109,61.755 184.129,61.756 184.119,61.773 184.14,61.774 184.13,61.792 184.151,61.792 184.141,61.81 
				184.161,61.81 184.151,61.828 184.172,61.828 184.162,61.846 184.183,61.846 184.173,61.864 184.193,61.864 184.183,61.882 
				184.204,61.882 184.194,61.9 184.214,61.9 184.204,61.918 184.225,61.918 184.215,61.937 184.236,61.937 184.225,61.955 
				184.246,61.955 184.236,61.973 184.257,61.973 184.247,61.991 184.268,61.991 184.257,62.009 184.278,62.009 184.268,62.027 
				184.289,62.027 184.279,62.045 184.299,62.045 184.289,62.063 184.31,62.063 184.3,62.082 184.321,62.082 184.311,62.1 
				184.331,62.1 184.321,62.118 184.342,62.118 184.332,62.136 184.352,62.136 184.342,62.154 184.363,62.154 184.353,62.172 
				184.374,62.172 184.364,62.19 184.384,62.19 184.374,62.208 184.395,62.208 184.385,62.226 184.406,62.226 184.395,62.244 
				184.416,62.244 184.406,62.263 184.427,62.263 184.417,62.281 184.438,62.281 184.427,62.299 184.448,62.299 184.438,62.317 
				184.459,62.317 184.449,62.335 184.469,62.335 184.459,62.353 184.48,62.353 184.47,62.371 184.491,62.371 184.48,62.389 
				184.501,62.389 184.491,62.408 184.512,62.408 184.502,62.426 184.522,62.426 184.512,62.444 184.533,62.444 184.523,62.462 
				184.544,62.462 184.533,62.48 184.554,62.48 184.544,62.498 184.565,62.498 184.555,62.516 184.576,62.516 184.565,62.534 
				184.586,62.534 184.576,62.553 184.597,62.552 184.587,62.571 184.607,62.57 184.597,62.589 184.618,62.589 184.608,62.607 
				184.629,62.607 184.618,62.625 184.639,62.625 184.629,62.643 184.65,62.643 184.64,62.661 184.661,62.661 184.65,62.679 
				184.671,62.679 184.661,62.697 184.682,62.697 184.671,62.715 184.692,62.715 184.682,62.734 184.703,62.734 184.693,62.752 
				184.714,62.752 184.703,62.77 184.724,62.77 184.714,62.788 184.735,62.788 184.725,62.806 184.745,62.806 184.735,62.824 
				184.756,62.824 184.746,62.842 184.767,62.842 184.756,62.86 184.777,62.86 184.767,62.879 184.788,62.878 184.778,62.897 
				184.799,62.896 184.788,62.915 184.809,62.915 184.799,62.933 184.82,62.933 184.809,62.951 184.83,62.951 184.82,62.969 
				184.841,62.969 184.831,62.987 184.852,62.987 184.841,63.005 184.862,63.005 184.852,63.023 184.873,63.023 184.863,63.042 
				184.884,63.041 184.873,63.06 184.894,63.06 184.884,63.078 184.905,63.078 184.895,63.096 184.915,63.096 184.905,63.114 
				184.926,63.114 184.916,63.132 184.937,63.132 184.926,63.15 184.947,63.15 184.937,63.168 184.958,63.168 184.948,63.187 
				184.969,63.186 184.958,63.205 184.979,63.204 184.969,63.223 184.99,63.222 184.979,63.241 185,63.241 184.99,63.259 
				185.011,63.259 185.001,63.277 185.022,63.277 185.011,63.295 185.032,63.295 185.022,63.313 185.043,63.313 185.033,63.331 
				185.054,63.331 185.043,63.349 185.064,63.349 185.054,63.368 185.075,63.367 185.064,63.386 185.085,63.386 185.075,63.404 
				185.096,63.404 185.086,63.422 185.107,63.422 185.096,63.44 185.117,63.44 185.107,63.458 185.128,63.458 185.117,63.476 
				185.139,63.476 156.722,113.071 99.566,113.666 99.576,113.648 99.555,113.648 99.566,113.63 99.545,113.63 99.555,113.612 
				99.534,113.612 99.545,113.593 99.523,113.594 99.534,113.575 99.513,113.576 99.523,113.557 99.502,113.557 99.513,113.539 
				99.492,113.539 99.502,113.521 99.481,113.521 99.491,113.503 99.47,113.503 99.481,113.485 99.46,113.485 99.47,113.467 
				99.449,113.467 99.46,113.449 99.438,113.449 99.449,113.43 99.428,113.431 99.438,113.412 99.417,113.412 99.428,113.394 
				99.407,113.394 99.417,113.376 99.396,113.376 99.406,113.358 99.385,113.358 99.396,113.34 99.375,113.34 99.385,113.322 
				99.364,113.322 99.374,113.304 99.353,113.304 99.364,113.286 99.343,113.286 99.353,113.267 99.332,113.268 99.343,113.249 
				99.322,113.249 99.332,113.231 99.311,113.231 99.321,113.213 99.3,113.213 99.311,113.195 99.29,113.195 99.3,113.177 
				99.279,113.177 99.289,113.159 99.269,113.159 99.279,113.141 99.258,113.141 99.268,113.123 99.247,113.123 99.258,113.104 
				99.237,113.105 99.247,113.086 99.226,113.087 99.236,113.068 99.215,113.068 99.226,113.05 99.205,113.05 99.215,113.032 
				99.194,113.032 99.204,113.014 99.184,113.014 99.194,112.996 99.173,112.996 99.183,112.978 99.162,112.978 99.173,112.96 
				99.152,112.96 99.162,112.941 99.141,112.942 99.151,112.923 99.13,112.924 99.141,112.905 99.12,112.905 99.13,112.887 
				99.109,112.887 99.119,112.869 99.099,112.869 99.109,112.851 99.088,112.851 99.098,112.833 99.077,112.833 99.088,112.815 
				99.067,112.815 99.077,112.797 99.056,112.797 99.066,112.779 99.045,112.779 99.056,112.76 99.035,112.76 99.045,112.742 
				99.024,112.742 99.034,112.724 99.013,112.724 99.024,112.706 99.003,112.706 99.013,112.688 98.992,112.688 99.003,112.67 
				98.982,112.67 98.992,112.652 98.971,112.652 98.981,112.634 98.96,112.634 98.971,112.616 98.95,112.616 98.96,112.598 
				98.939,112.598 98.949,112.579 98.928,112.579 98.939,112.561 98.918,112.561 98.928,112.543 98.907,112.543 98.918,112.525 
				98.897,112.525 98.907,112.507 98.886,112.507 98.896,112.489 98.875,112.489 98.886,112.471 98.865,112.471 98.875,112.453 
				98.854,112.453 98.864,112.435 98.843,112.435 98.854,112.416 98.833,112.416 98.843,112.398 98.822,112.398 98.832,112.38 
				98.812,112.38 98.822,112.362 98.801,112.362 98.811,112.344 98.79,112.344 98.801,112.326 98.78,112.326 98.79,112.308 
				98.769,112.308 98.779,112.29 98.759,112.29 98.769,112.271 98.748,112.271 98.758,112.253 98.737,112.253 98.747,112.235 
				98.727,112.235 98.737,112.217 98.716,112.217 98.726,112.199 98.705,112.199 98.715,112.181 98.695,112.181 98.705,112.163 
				98.684,112.163 98.694,112.145 98.674,112.145 98.684,112.127 98.663,112.127 98.673,112.108 98.652,112.108 98.662,112.09 
				98.642,112.09 98.652,112.072 98.631,112.072 98.641,112.054 98.62,112.054 98.631,112.036 98.61,112.036 98.62,112.018 
				98.599,112.018 98.609,112 98.589,112 98.599,111.982 98.578,111.982 98.588,111.964 98.567,111.964 98.577,111.946 
				98.557,111.946 98.567,111.927 98.546,111.927 98.556,111.909 98.535,111.909 98.546,111.891 98.525,111.891 98.535,111.873 
				98.514,111.873 98.524,111.855 98.504,111.855 			"/>
			<polygon style="fill:#0A111A;" points="127.983,64.072 185.139,63.476 156.722,113.071 99.566,113.666 			"/>
			<path style="fill:#0A111A;" d="M150.482,104.156c-9.014,5.287-16.021,11.382-18.989,16.078l-11.335-19.326
				c-2.078-3.542,5.705-11.966,17.383-18.816c11.678-6.849,22.829-9.53,24.907-5.988l11.335,19.326
				C168.235,95.729,159.496,98.869,150.482,104.156z"/>
			<path style="fill:#111F37;" d="M120.159,100.909l1.176,2.006c-2.076-3.54,5.703-11.972,17.377-18.819
				c11.684-6.853,22.84-9.527,24.916-5.987l-1.176-2.006c-2.076-3.54-13.232-0.866-24.916,5.987
				C125.862,88.937,118.083,97.369,120.159,100.909z"/>
			<path style="fill:#111F37;" d="M131.324,119.945c2.369,4.039,13.757,1.76,25.436-5.09c11.679-6.85,19.226-15.677,16.857-19.716
				c-2.369-4.039-13.757-1.76-25.436,5.09C136.503,107.08,128.955,115.907,131.324,119.945z"/>
		</g>
		<g>
			<path style="fill:#39679E;" d="M368.106,76.538c0.019,0.324,16.971,19.992,21.489,25.373c1.53,1.822,1.813,4.384,0.718,6.497
				l-6.288,12.142c-1.917,3.701-4.227,7.176-6.832,10.43c-2.558,3.196-5.534,7.91-4.812,11.875c0,0,5.898,3.738,8.783-0.707
				c0,0-0.603-8.723,1.216-12.538l10.241-21.766c0.997-2.118,0.645-4.625-0.896-6.387l-22.95-26.061L368.106,76.538z"/>
			<polygon style="fill:#111F37;" points="400.408,102.661 400.429,102.661 372.445,52.329 314.856,52.471 314.866,52.489 
				314.845,52.489 314.855,52.508 314.835,52.508 314.845,52.526 314.824,52.526 314.834,52.544 314.814,52.544 314.824,52.562 
				314.803,52.562 314.813,52.58 314.792,52.58 314.802,52.598 314.782,52.598 314.792,52.616 314.771,52.616 314.781,52.634 
				314.76,52.634 314.771,52.653 314.75,52.653 314.76,52.671 314.739,52.671 314.749,52.689 314.729,52.689 314.739,52.707 
				314.718,52.707 314.728,52.725 314.707,52.725 314.717,52.743 314.697,52.743 314.707,52.761 314.686,52.761 314.696,52.779 
				314.676,52.779 314.686,52.797 314.665,52.797 314.675,52.815 314.654,52.816 314.664,52.834 314.644,52.834 314.654,52.852 
				314.633,52.852 314.643,52.87 314.622,52.87 314.633,52.888 314.612,52.888 314.622,52.906 314.601,52.906 314.611,52.924 
				314.59,52.924 314.601,52.942 314.58,52.942 314.59,52.96 314.569,52.96 314.579,52.979 314.559,52.979 314.569,52.997 
				314.548,52.997 314.558,53.015 314.537,53.015 314.548,53.033 314.527,53.033 314.537,53.051 314.516,53.051 314.526,53.069 
				314.506,53.069 314.516,53.087 314.495,53.087 314.505,53.105 314.484,53.105 314.495,53.124 314.474,53.124 314.484,53.142 
				314.463,53.141 314.473,53.16 314.452,53.16 314.463,53.178 314.442,53.178 314.452,53.196 314.431,53.196 314.441,53.214 
				314.421,53.214 314.431,53.232 314.41,53.232 314.42,53.25 314.399,53.25 314.409,53.268 314.389,53.268 314.399,53.286 
				314.378,53.286 314.388,53.305 314.367,53.305 314.378,53.323 314.357,53.323 314.367,53.341 314.346,53.341 314.357,53.359 
				314.336,53.359 314.346,53.377 314.325,53.377 314.335,53.395 314.314,53.395 314.325,53.413 314.304,53.413 314.314,53.431 
				314.293,53.431 314.303,53.45 314.283,53.449 314.293,53.468 314.272,53.467 314.282,53.486 314.261,53.486 314.271,53.504 
				314.251,53.504 314.261,53.522 314.24,53.522 314.25,53.54 314.229,53.54 314.24,53.558 314.219,53.558 314.229,53.576 
				314.208,53.576 314.218,53.594 314.197,53.594 314.208,53.613 314.187,53.612 314.197,53.631 314.176,53.631 314.187,53.649 
				314.166,53.649 314.176,53.667 314.155,53.667 314.165,53.685 314.144,53.685 314.155,53.703 314.134,53.703 314.144,53.721 
				314.123,53.721 314.133,53.739 314.112,53.739 314.123,53.757 314.102,53.757 314.112,53.776 314.091,53.775 314.102,53.794 
				314.081,53.794 314.091,53.812 314.07,53.812 314.08,53.83 314.059,53.83 314.07,53.848 314.049,53.848 314.059,53.866 
				314.038,53.866 314.048,53.884 314.027,53.884 314.038,53.902 314.017,53.902 314.027,53.921 314.006,53.92 314.017,53.939 
				313.996,53.938 314.006,53.957 313.985,53.957 313.995,53.975 313.974,53.975 313.985,53.993 313.964,53.993 313.974,54.011 
				313.953,54.011 313.964,54.029 313.943,54.029 313.953,54.047 313.932,54.047 313.942,54.065 313.921,54.065 313.932,54.083 
				313.911,54.083 313.921,54.102 313.9,54.102 313.91,54.12 313.889,54.12 313.9,54.138 313.879,54.138 313.889,54.156 
				313.868,54.156 313.879,54.174 313.858,54.174 313.868,54.192 313.847,54.192 313.857,54.21 313.836,54.21 313.847,54.228 
				313.826,54.228 313.836,54.246 313.815,54.246 313.826,54.265 313.804,54.264 313.815,54.283 313.794,54.283 313.804,54.301 
				313.783,54.301 342.2,103.895 399.356,104.491 399.345,104.472 399.366,104.473 399.356,104.454 399.377,104.454 
				399.367,104.436 399.388,104.436 399.377,104.418 399.398,104.418 399.388,104.4 399.409,104.4 399.398,104.382 399.42,104.382 
				399.409,104.364 399.43,104.364 399.42,104.346 399.441,104.346 399.43,104.327 399.451,104.328 399.441,104.309 399.462,104.31 
				399.452,104.291 399.473,104.291 399.462,104.273 399.483,104.273 399.473,104.255 399.494,104.255 399.484,104.237 
				399.505,104.237 399.494,104.219 399.515,104.219 399.505,104.201 399.526,104.201 399.515,104.183 399.536,104.183 
				399.526,104.164 399.547,104.165 399.537,104.146 399.558,104.147 399.547,104.128 399.568,104.128 399.558,104.11 
				399.579,104.11 399.569,104.092 399.59,104.092 399.579,104.074 399.6,104.074 399.59,104.056 399.611,104.056 399.6,104.038 
				399.621,104.038 399.611,104.02 399.632,104.02 399.622,104.002 399.643,104.002 399.632,103.983 399.653,103.984 
				399.643,103.965 399.664,103.965 399.654,103.947 399.675,103.947 399.664,103.929 399.685,103.929 399.675,103.911 
				399.696,103.911 399.685,103.893 399.706,103.893 399.696,103.875 399.717,103.875 399.707,103.857 399.728,103.857 
				399.717,103.839 399.738,103.839 399.728,103.82 399.749,103.821 399.739,103.802 399.76,103.802 399.749,103.784 
				399.77,103.784 399.76,103.766 399.781,103.766 399.77,103.748 399.791,103.748 399.781,103.73 399.802,103.73 399.792,103.712 
				399.813,103.712 399.802,103.694 399.823,103.694 399.813,103.676 399.834,103.676 399.824,103.657 399.845,103.658 
				399.834,103.639 399.855,103.639 399.845,103.621 399.866,103.621 399.855,103.603 399.876,103.603 399.866,103.585 
				399.887,103.585 399.877,103.567 399.898,103.567 399.887,103.549 399.908,103.549 399.898,103.531 399.919,103.531 
				399.909,103.513 399.93,103.513 399.919,103.494 399.94,103.494 399.93,103.476 399.951,103.476 399.941,103.458 
				399.961,103.458 399.951,103.44 399.972,103.44 399.962,103.422 399.983,103.422 399.972,103.404 399.993,103.404 
				399.983,103.386 400.004,103.386 399.994,103.368 400.014,103.368 400.004,103.35 400.025,103.35 400.015,103.331 
				400.036,103.331 400.026,103.313 400.046,103.313 400.036,103.295 400.057,103.295 400.047,103.277 400.068,103.277 
				400.057,103.259 400.078,103.259 400.068,103.241 400.089,103.241 400.079,103.223 400.099,103.223 400.089,103.205 
				400.11,103.205 400.1,103.187 400.121,103.187 400.111,103.169 400.131,103.169 400.121,103.15 400.142,103.15 400.132,103.132 
				400.153,103.132 400.142,103.114 400.163,103.114 400.153,103.096 400.174,103.096 400.164,103.078 400.184,103.078 
				400.174,103.06 400.195,103.06 400.185,103.042 400.206,103.042 400.196,103.024 400.216,103.024 400.206,103.006 
				400.227,103.006 400.217,102.988 400.238,102.987 400.227,102.969 400.248,102.969 400.238,102.951 400.259,102.951 
				400.249,102.933 400.27,102.933 400.259,102.915 400.28,102.915 400.27,102.897 400.291,102.897 400.281,102.879 
				400.301,102.879 400.291,102.861 400.312,102.861 400.302,102.843 400.323,102.842 400.313,102.824 400.333,102.824 
				400.323,102.806 400.344,102.806 400.334,102.788 400.354,102.788 400.344,102.77 400.365,102.77 400.355,102.752 
				400.376,102.752 400.366,102.734 400.386,102.734 400.376,102.716 400.397,102.716 400.387,102.698 400.408,102.698 
				400.397,102.68 400.418,102.679 			"/>
			<polygon style="fill:#0A111A;" points="370.939,54.896 313.783,54.301 342.2,103.895 399.356,104.491 			"/>
			<path style="fill:#0A111A;" d="M348.44,94.98c9.014,5.287,16.021,11.382,18.989,16.078l11.335-19.326
				c2.078-3.542-5.705-11.966-17.383-18.816c-11.678-6.849-22.829-9.53-24.907-5.988l-11.335,19.326
				C330.686,86.553,339.425,89.693,348.44,94.98z"/>
			<path style="fill:#111F37;" d="M378.763,91.733l-1.176,2.006c2.076-3.54-5.703-11.972-17.377-18.819
				c-11.684-6.853-22.84-9.527-24.916-5.987l1.177-2.006c2.076-3.54,13.232-0.866,24.916,5.987
				C373.06,79.762,380.839,88.193,378.763,91.733z"/>
			<path style="fill:#111F37;" d="M367.597,110.77c-2.369,4.039-13.757,1.76-25.435-5.09c-11.679-6.85-19.226-15.677-16.857-19.716
				c2.369-4.039,13.757-1.76,25.436,5.09C362.419,97.904,369.966,106.731,367.597,110.77z"/>
		</g>
	</g>
</g>
<g id="Designed_by_Freepik">
	<g>
		<g>
			<g id="XMLID_197_">
				<g id="XMLID_216_">
					<path id="XMLID_224_" style="fill:#1C1C1B;" d="M260.104,465.465c-0.432,0.443-0.803,0.931-1.108,1.453l-0.465-0.241
						c-0.067-0.298-0.349-0.503-0.659-0.466c-0.331,0.039-0.568,0.339-0.529,0.67s0.339,0.568,0.67,0.529
						c0.065-0.008,0.127-0.026,0.184-0.052l0.451,0.234c-0.251,0.554-0.433,1.139-0.539,1.744l0.746,0.132
						c0.23-1.306,0.85-2.507,1.792-3.473L260.104,465.465z"/>
					<path id="XMLID_223_" style="fill:#1C1C1B;" d="M265.592,463.163c-0.171,0-0.341,0.006-0.51,0.017l-0.074-0.626
						c0.188-0.149,0.296-0.389,0.266-0.645c-0.046-0.393-0.402-0.674-0.795-0.628s-0.674,0.402-0.628,0.795
						c0.03,0.254,0.189,0.461,0.405,0.564l0.073,0.624c-0.714,0.116-1.403,0.332-2.06,0.646l0.327,0.684
						c0.934-0.447,1.942-0.673,2.995-0.673c0.496,0,0.993,0.053,1.475,0.158l0.161-0.741
						C266.693,463.222,266.142,463.163,265.592,463.163z"/>
					<path id="XMLID_222_" style="fill:#1C1C1B;" d="M272.194,465.711c0.331-0.04,0.566-0.341,0.525-0.672
						c-0.04-0.331-0.341-0.566-0.672-0.526c-0.309,0.038-0.535,0.304-0.53,0.609l-0.416,0.363c-0.418-0.43-0.89-0.813-1.408-1.139
						l-0.404,0.641c1.134,0.715,2.021,1.726,2.563,2.925l0.691-0.313c-0.251-0.554-0.568-1.072-0.942-1.545l0.402-0.351
						C272.065,465.716,272.129,465.719,272.194,465.711z"/>
					<path id="XMLID_221_" style="fill:#1C1C1B;" d="M265.044,473.372c-0.386,0.023-0.775,0.035-1.157,0.035
						c-0.88,0-1.733-0.061-2.478-0.179c-0.39-0.062-0.846-0.155-1.27-0.292c1.046,1.861,3.069,3.125,5.388,3.125
						c2.855,0,5.262-1.916,5.95-4.504c-0.682,0.449-1.505,0.825-2.459,1.123C267.839,473.047,266.464,473.286,265.044,473.372z"/>
					<path id="XMLID_217_" style="fill:#1C1C1B;" d="M265.592,464.68c-3.352,0-6.08,2.666-6.08,5.943
						c0,0.426,0.046,0.849,0.137,1.261c0.674,0.483,2.706,0.89,5.348,0.731c2.879-0.173,5.297-0.957,6.672-2.159
						c-0.005-0.195-0.021-0.39-0.045-0.582C271.244,466.913,268.65,464.68,265.592,464.68z M263.432,471.194
						c-1.02,0-1.85-0.83-1.85-1.85c0-1.02,0.83-1.85,1.85-1.85c1.02,0,1.85,0.83,1.85,1.85
						C265.282,470.365,264.452,471.194,263.432,471.194z M268.17,470.286c-0.75,0-1.36-0.61-1.36-1.36s0.61-1.361,1.36-1.361
						c0.75,0,1.361,0.61,1.361,1.361S268.92,470.286,268.17,470.286z"/>
				</g>
				<path id="XMLID_214_" style="fill:#1C1C1B;" d="M281.595,466.547c-0.295-0.116-0.806-0.309-1.382-0.237
					c-0.551,0.069-0.844,0.341-0.844,1.007v0.866h2.228v1.717h-2.228v5.455h-1.932v-5.455h-1.34v-1.717h1.34v-0.888
					c0-1.68,0.896-2.783,2.568-2.783c0.642,0,1.157,0.122,1.59,0.308L281.595,466.547z"/>
				<path id="XMLID_212_" style="fill:#1C1C1B;" d="M286.298,469.879c-0.177-0.03-0.358-0.046-0.526-0.046
					c-0.896,0-1.51,0.548-1.51,1.614v3.908h-1.932v-7.172h1.873v0.785c0.451-0.673,1.14-0.977,2.021-0.977
					c0.414,0,0.848,0.128,1.094,0.337L286.298,469.879z"/>
				<path id="XMLID_209_" style="fill:#1C1C1B;" d="M293.965,471.757c0,0.222-0.015,0.489-0.037,0.651h-5.085
					c0.207,1.036,0.933,1.488,1.843,1.488c0.622,0,1.295-0.252,1.813-0.688l1.132,1.243c-0.814,0.748-1.85,1.088-3.057,1.088
					c-2.198,0-3.723-1.495-3.723-3.753c0-2.258,1.48-3.797,3.627-3.797C292.544,467.99,293.958,469.522,293.965,471.757z
					 M288.851,471.091h3.175c-0.177-0.918-0.733-1.436-1.562-1.436C289.554,469.655,289.021,470.203,288.851,471.091z"/>
				<path id="XMLID_206_" style="fill:#1C1C1B;" d="M301.618,471.757c0,0.222-0.015,0.489-0.037,0.651h-5.085
					c0.207,1.036,0.932,1.488,1.843,1.488c0.622,0,1.295-0.252,1.813-0.688l1.132,1.243c-0.814,0.748-1.85,1.088-3.057,1.088
					c-2.198,0-3.723-1.495-3.723-3.753c0-2.258,1.48-3.797,3.627-3.797C300.197,467.99,301.611,469.522,301.618,471.757z
					 M296.504,471.091h3.175c-0.178-0.918-0.733-1.436-1.562-1.436C297.207,469.655,296.674,470.203,296.504,471.091z"/>
				<path id="XMLID_203_" style="fill:#1C1C1B;" d="M309.964,471.764c0,2.154-1.495,3.775-3.471,3.775
					c-0.962,0-1.643-0.378-2.109-0.933v3.708h-1.924v-10.133h1.887v0.792c0.466-0.585,1.155-0.984,2.139-0.984
					C308.469,467.99,309.964,469.61,309.964,471.764z M304.287,471.764c0,1.132,0.747,1.976,1.843,1.976
					c1.14,0,1.85-0.881,1.85-1.976c0-1.095-0.71-1.976-1.85-1.976C305.035,469.788,304.287,470.632,304.287,471.764z"/>
				<path id="XMLID_200_" style="fill:#1C1C1B;" d="M313.068,465.836c0,0.696-0.54,1.229-1.236,1.229
					c-0.696,0-1.229-0.533-1.229-1.229c0-0.696,0.533-1.243,1.229-1.243C312.527,464.592,313.068,465.14,313.068,465.836z
					 M312.809,475.354h-1.932v-7.172h1.932V475.354z"/>
				<path id="XMLID_198_" style="fill:#1C1C1B;" d="M316.032,470.736l2.702-2.554h2.368l-3.479,3.375l3.501,3.797h-2.376
					l-2.716-2.901v2.901H314.1v-10.658h1.932V470.736z"/>
			</g>
			<g>
				<path style="fill:#1C1C1B;" d="M184.412,475.289v-1.055c-0.527,0.718-1.391,1.23-2.387,1.23c-1.846,0-3.149-1.406-3.149-3.706
					c0-2.256,1.289-3.721,3.149-3.721c0.952,0,1.816,0.469,2.387,1.245v-3.765h1.099v9.77H184.412z M184.412,473.37v-3.208
					c-0.395-0.615-1.245-1.143-2.124-1.143c-1.421,0-2.27,1.172-2.27,2.739c0,1.567,0.85,2.724,2.27,2.724
					C183.168,474.483,184.017,473.986,184.412,473.37z"/>
				<path style="fill:#1C1C1B;" d="M186.932,471.744c0-2.051,1.465-3.706,3.486-3.706c2.139,0,3.398,1.67,3.398,3.794v0.279h-5.727
					c0.088,1.333,1.025,2.446,2.549,2.446c0.805,0,1.626-0.322,2.182-0.894l0.527,0.718c-0.703,0.703-1.655,1.084-2.812,1.084
					C188.44,475.465,186.932,473.956,186.932,471.744z M190.403,468.947c-1.509,0-2.256,1.274-2.314,2.358h4.643
					C192.718,470.25,192.015,468.947,190.403,468.947z"/>
				<path style="fill:#1C1C1B;" d="M194.607,474.351l0.571-0.791c0.469,0.542,1.362,1.011,2.329,1.011
					c1.084,0,1.67-0.513,1.67-1.216c0-1.714-4.38-0.659-4.38-3.281c0-1.098,0.952-2.036,2.636-2.036
					c1.201,0,2.051,0.454,2.622,1.026l-0.513,0.762c-0.424-0.513-1.201-0.894-2.109-0.894c-0.967,0-1.567,0.483-1.567,1.113
					c0,1.552,4.38,0.527,4.38,3.281c0,1.187-0.952,2.138-2.783,2.138C196.306,475.465,195.325,475.113,194.607,474.351z"/>
				<path style="fill:#1C1C1B;" d="M201.477,466.471c0-0.41,0.337-0.747,0.732-0.747c0.41,0,0.747,0.337,0.747,0.747
					c0,0.41-0.337,0.732-0.747,0.732C201.814,467.203,201.477,466.881,201.477,466.471z M201.667,475.289v-7.075h1.099v7.075
					H201.667z"/>
				<path style="fill:#1C1C1B;" d="M204.582,477.105l0.556-0.82c0.586,0.703,1.289,0.967,2.3,0.967c1.172,0,2.27-0.571,2.27-2.124
					v-1.011c-0.513,0.718-1.377,1.26-2.373,1.26c-1.845,0-3.149-1.377-3.149-3.662c0-2.27,1.289-3.677,3.149-3.677
					c0.952,0,1.802,0.469,2.373,1.245v-1.069h1.098v6.87c0,2.344-1.641,3.076-3.369,3.076
					C206.237,478.16,205.417,477.926,204.582,477.105z M209.709,473.253v-3.091c-0.381-0.615-1.23-1.143-2.109-1.143
					c-1.421,0-2.27,1.128-2.27,2.695c0,1.553,0.849,2.695,2.27,2.695C208.478,474.41,209.328,473.868,209.709,473.253z"/>
				<path style="fill:#1C1C1B;" d="M217.413,475.289v-4.629c0-1.245-0.63-1.641-1.582-1.641c-0.865,0-1.685,0.527-2.095,1.099v5.17
					h-1.099v-7.075h1.099v1.025c0.498-0.586,1.464-1.201,2.519-1.201c1.48,0,2.256,0.747,2.256,2.285v4.966H217.413z"/>
				<path style="fill:#1C1C1B;" d="M219.932,471.744c0-2.051,1.465-3.706,3.486-3.706c2.139,0,3.398,1.67,3.398,3.794v0.279h-5.727
					c0.088,1.333,1.025,2.446,2.549,2.446c0.806,0,1.626-0.322,2.183-0.894l0.527,0.718c-0.703,0.703-1.655,1.084-2.812,1.084
					C221.441,475.465,219.932,473.956,219.932,471.744z M223.404,468.947c-1.509,0-2.256,1.274-2.314,2.358h4.643
					C225.718,470.25,225.015,468.947,223.404,468.947z"/>
				<path style="fill:#1C1C1B;" d="M233.35,475.289v-1.055c-0.527,0.718-1.392,1.23-2.388,1.23c-1.846,0-3.149-1.406-3.149-3.706
					c0-2.256,1.289-3.721,3.149-3.721c0.952,0,1.817,0.469,2.388,1.245v-3.765h1.098v9.77H233.35z M233.35,473.37v-3.208
					c-0.396-0.615-1.245-1.143-2.124-1.143c-1.421,0-2.27,1.172-2.27,2.739c0,1.567,0.849,2.724,2.27,2.724
					C232.105,474.483,232.954,473.986,233.35,473.37z"/>
				<path style="fill:#1C1C1B;" d="M239.692,475.289v-9.77h1.098v3.765c0.572-0.776,1.421-1.245,2.388-1.245
					c1.845,0,3.149,1.465,3.149,3.721c0,2.299-1.304,3.706-3.149,3.706c-0.996,0-1.86-0.513-2.388-1.23v1.055H239.692z
					 M242.9,474.483c1.436,0,2.285-1.157,2.285-2.724c0-1.568-0.85-2.739-2.285-2.739c-0.864,0-1.728,0.527-2.109,1.143v3.208
					C241.171,473.986,242.036,474.483,242.9,474.483z"/>
				<path style="fill:#1C1C1B;" d="M247.528,477.061c0.161,0.073,0.425,0.117,0.601,0.117c0.483,0,0.805-0.161,1.055-0.747
					l0.469-1.069l-2.959-7.148h1.187l2.358,5.8l2.344-5.8h1.201l-3.545,8.51c-0.425,1.025-1.143,1.421-2.08,1.435
					c-0.234,0-0.601-0.044-0.805-0.103L247.528,477.061z"/>
			</g>
		</g>
	</g>
</g>
</svg>
